<?xml version="1.0" standalone="no"?>
<!DOCTYPE svg PUBLIC "-//W3C//DTD SVG 20010904//EN"
 "http://www.w3.org/TR/2001/REC-SVG-20010904/DTD/svg10.dtd">
<svg version="1.0" xmlns="http://www.w3.org/2000/svg"
 width="2934.000000pt" height="2934.000000pt" viewBox="0 0 2934.000000 2934.000000"
 preserveAspectRatio="xMidYMid meet">
<metadata>
Created by potrace 1.16, written by Peter Selinger 2001-2019
</metadata>
<g transform="translate(0.000000,2934.000000) scale(0.100000,-0.100000)"
fill="#000000" stroke="none">
<path d="M15265 24464 c-38 -8 -99 -18 -135 -23 -71 -10 -135 -32 -389 -129
-29 -12 -71 -33 -92 -47 -34 -22 -49 -25 -124 -25 -112 0 -268 -17 -326 -35
-25 -8 -117 -48 -205 -88 -87 -41 -206 -96 -264 -122 -58 -26 -123 -55 -145
-65 -45 -21 -151 -60 -240 -88 -127 -41 -274 -133 -355 -223 -30 -32 -45 -41
-95 -50 -138 -25 -204 -92 -441 -450 -115 -173 -158 -213 -265 -243 -69 -19
-140 -79 -174 -146 -13 -26 -33 -84 -45 -129 -18 -72 -20 -106 -18 -279 3
-222 6 -209 -85 -362 -174 -293 -171 -282 -173 -563 l-2 -227 -51 -63 c-28
-34 -56 -79 -62 -101 -6 -21 -9 -104 -7 -190 3 -140 5 -153 27 -184 44 -63 40
-103 -24 -230 -75 -151 -83 -195 -81 -467 1 -207 3 -223 25 -272 12 -28 31
-59 42 -69 29 -26 23 -58 -22 -134 -64 -108 -70 -146 -59 -350 7 -140 14 -193
35 -265 26 -88 71 -181 99 -204 12 -10 10 -21 -12 -69 -20 -44 -26 -73 -26
-127 -1 -61 3 -78 34 -134 39 -72 41 -107 9 -199 -11 -31 -22 -82 -25 -113 -2
-31 -35 -157 -73 -280 -126 -407 -156 -483 -278 -689 -124 -211 -173 -338
-189 -492 -4 -38 -9 -68 -12 -68 -7 0 -441 239 -479 264 -18 11 -37 31 -42 43
-6 13 -30 37 -54 54 -42 29 -45 35 -57 101 -36 205 -153 359 -343 453 -143 71
-278 90 -430 61 -232 -45 -425 -214 -493 -433 -23 -73 -26 -95 -22 -195 7
-173 53 -278 178 -407 111 -114 299 -191 465 -191 63 0 175 19 227 39 22 8 37
5 86 -20 35 -18 84 -34 118 -38 47 -5 80 -19 154 -63 52 -30 245 -140 429
-244 183 -104 335 -193 336 -199 2 -5 6 -23 10 -40 9 -42 85 -110 140 -125 24
-7 71 -10 102 -8 57 5 60 4 193 -72 74 -42 158 -89 185 -105 28 -15 108 -59
178 -98 l129 -72 -6 -45 c-3 -25 -8 -108 -11 -185 -9 -205 -12 -227 -36 -220
-11 4 -34 2 -52 -4 -30 -10 -41 -28 -132 -212 -55 -110 -103 -203 -108 -205
-4 -3 -20 8 -37 24 -30 30 -94 52 -153 52 -57 0 -245 94 -292 145 -22 25 -71
61 -109 82 -56 30 -81 37 -131 39 -54 2 -82 11 -221 77 -221 104 -598 284
-792 377 -89 43 -171 81 -181 85 -11 3 -22 19 -26 36 -8 36 -68 97 -104 106
-14 3 -46 27 -71 52 -25 26 -76 62 -115 81 -38 19 -72 36 -73 37 -2 1 8 19 22
40 55 81 25 230 -65 321 -107 108 -152 107 -265 -9 -143 -145 -271 -337 -288
-430 -5 -27 -16 -43 -44 -61 -91 -61 -159 -155 -219 -301 -29 -74 -33 -92 -33
-184 0 -113 15 -163 56 -182 43 -19 155 -34 228 -29 125 8 196 60 220 160 l6
27 63 -34 c34 -19 81 -37 105 -41 25 -4 42 -12 42 -20 0 -32 211 -105 260 -89
13 4 67 -20 167 -73 81 -44 195 -104 253 -135 619 -325 728 -385 736 -409 11
-35 80 -97 138 -124 43 -19 69 -25 113 -23 53 3 67 -2 160 -50 61 -31 105 -60
108 -71 16 -51 121 -110 194 -110 17 0 31 -4 31 -9 0 -5 -36 -84 -79 -174 -60
-127 -80 -180 -86 -227 -4 -38 -18 -82 -38 -118 -17 -31 -40 -93 -52 -137 -17
-67 -30 -92 -77 -151 -70 -88 -122 -173 -193 -313 -36 -73 -70 -125 -101 -155
-43 -43 -46 -49 -41 -87 8 -58 78 -135 185 -203 139 -87 207 -104 269 -66 23
14 35 31 43 62 5 24 24 84 41 133 17 50 34 104 38 120 5 17 29 62 55 100 73
109 142 254 185 388 22 67 42 134 45 148 4 17 16 31 36 39 17 7 61 43 99 80
50 49 67 61 60 42 -16 -40 0 -110 33 -147 47 -55 152 -82 233 -62 61 15 63 -2
13 -110 -26 -54 -61 -146 -79 -205 -29 -95 -36 -108 -61 -119 -16 -7 -40 -26
-54 -44 -21 -28 -24 -42 -24 -123 0 -90 0 -91 -31 -113 -38 -27 -59 -74 -59
-130 0 -35 6 -48 40 -82 l40 -40 -9 -86 c-5 -47 -17 -133 -26 -191 -20 -130
-17 -283 14 -545 26 -227 22 -338 -15 -395 -35 -53 -38 -82 -16 -133 11 -24
25 -48 31 -51 20 -13 2 -136 -26 -173 -37 -50 -73 -134 -73 -173 -1 -31 -21
-157 -50 -300 -19 -94 -14 -120 30 -160 22 -20 40 -41 40 -47 0 -16 43 -51 82
-67 26 -11 46 -31 68 -69 29 -48 84 -97 110 -97 5 0 44 -51 85 -114 69 -105
161 -206 189 -206 6 0 36 -26 66 -56 113 -115 217 -161 350 -151 137 9 247 71
306 174 23 39 26 52 21 105 -4 43 -11 66 -28 84 -18 20 -23 37 -24 88 -1 34
-5 68 -10 75 -10 18 -105 61 -132 61 -20 0 -23 5 -23 43 0 50 -4 56 -52 89
l-38 25 47 48 c74 75 107 92 223 114 58 11 120 25 139 30 31 10 33 9 27 -12
-33 -114 -48 -186 -53 -264 -7 -103 2 -150 50 -256 29 -65 30 -69 17 -122 -9
-37 -11 -91 -7 -171 5 -116 5 -119 -29 -208 -18 -50 -41 -122 -50 -161 -21
-89 -58 -238 -96 -380 -35 -131 -34 -221 1 -280 l21 -36 -30 -37 c-48 -60 -60
-110 -60 -246 1 -138 14 -294 30 -347 5 -20 22 -54 36 -74 20 -30 24 -46 19
-71 -10 -58 -46 -157 -78 -219 -27 -52 -31 -70 -30 -135 0 -41 2 -93 4 -115 2
-29 -3 -53 -20 -85 -13 -25 -41 -77 -61 -117 -20 -40 -41 -78 -47 -85 -17 -21
-42 -141 -36 -171 8 -40 47 -67 100 -67 l43 0 -24 -47 c-31 -63 -55 -83 -153
-132 -68 -35 -90 -53 -137 -111 -68 -83 -100 -145 -122 -231 -9 -35 -20 -71
-24 -79 -19 -36 -51 -270 -48 -350 3 -79 5 -85 28 -97 222 -112 281 -122 755
-130 381 -6 610 5 650 33 10 8 32 14 48 14 41 0 81 32 101 82 10 24 28 66 41
93 56 118 58 131 52 324 l-6 180 66 58 c37 32 79 78 95 102 24 39 28 55 28
121 0 42 7 101 16 131 20 66 84 195 157 314 132 217 158 257 207 321 57 76 59
78 114 130 55 53 85 127 96 243 13 129 12 233 -1 286 -9 34 -8 50 4 77 7 18
23 61 35 95 12 34 50 106 85 160 62 94 124 196 179 293 14 25 28 63 32 85 5
25 20 53 41 75 27 28 34 44 36 80 1 25 -3 55 -9 67 -11 19 -5 38 48 145 58
120 141 338 163 428 6 25 11 46 12 47 1 2 35 -4 76 -11 136 -26 292 -30 424
-11 65 9 130 21 143 26 13 5 24 9 25 9 1 0 1 -51 0 -114 -2 -105 0 -122 28
-203 34 -99 66 -169 89 -197 11 -13 17 -52 21 -135 6 -107 10 -125 54 -236 26
-66 51 -131 55 -145 33 -98 94 -221 133 -270 35 -43 47 -66 47 -91 0 -19 11
-65 25 -103 21 -59 23 -80 18 -147 -6 -81 5 -157 37 -260 23 -72 60 -130 128
-201 61 -63 84 -95 132 -183 18 -33 54 -91 80 -130 66 -99 121 -197 160 -290
32 -75 34 -87 35 -195 0 -133 7 -151 86 -233 l49 -51 -11 -86 c-6 -47 -17 -92
-24 -100 -23 -28 -35 -82 -35 -157 0 -82 21 -137 68 -179 32 -29 200 -114 225
-114 9 0 39 -20 67 -45 68 -60 82 -66 148 -65 36 1 80 -7 117 -21 54 -19 72
-21 176 -15 83 5 143 3 210 -8 146 -23 356 -37 543 -35 225 1 269 9 304 51 15
18 42 49 59 68 l32 35 1 -174 0 -173 -32 5 c-18 3 -84 11 -147 18 -134 14
-133 18 18 75 99 38 121 50 121 65 0 16 -25 9 -148 -40 -134 -55 -182 -83
-182 -110 0 -16 14 -19 128 -24 70 -4 153 -13 184 -21 94 -23 91 -32 96 264
l5 253 -22 -6 c-20 -5 -21 -2 -21 79 0 94 -26 181 -66 225 -17 18 -24 37 -24
66 0 48 -29 89 -88 124 -20 13 -57 40 -81 61 -24 21 -69 54 -100 75 -31 20
-92 74 -136 119 l-80 83 22 26 c16 18 23 39 23 69 0 41 -52 264 -66 288 -4 6
-11 75 -15 152 -6 115 -12 150 -31 191 -22 48 -22 59 -19 265 3 214 3 215 32
276 42 89 37 195 -22 423 -24 95 -29 135 -29 234 0 114 -1 122 -31 180 -17 34
-37 70 -45 81 -10 15 -14 55 -14 146 0 122 -19 233 -50 290 -8 15 -9 72 -4
195 l7 173 -26 26 c-15 15 -42 28 -65 32 l-39 6 -28 127 c-28 127 -48 212
-105 441 -30 120 -36 137 -66 205 -8 17 -21 48 -31 70 -9 22 -19 43 -20 46 -2
4 20 1 49 -6 65 -15 222 -8 260 11 15 8 50 14 78 14 57 0 85 11 115 45 l21 23
108 -145 c112 -150 176 -247 176 -270 0 -7 -7 -13 -15 -13 -52 0 -125 -70
-125 -118 0 -12 -9 -23 -20 -27 -11 -3 -29 -21 -42 -38 -12 -18 -39 -48 -60
-68 -45 -42 -49 -76 -17 -143 15 -33 18 -49 11 -63 -6 -10 -13 -40 -17 -66
-14 -95 40 -174 161 -233 55 -27 67 -29 174 -28 63 0 133 5 155 10 107 27 254
141 338 262 21 29 55 95 76 148 22 53 42 99 45 102 3 2 29 7 58 10 30 2 71 15
94 28 23 14 64 31 92 39 66 20 97 48 120 110 24 65 18 92 -24 117 -34 20 -34
20 -34 94 0 49 6 86 16 106 20 39 12 81 -24 128 l-27 35 3 237 3 238 112 0
c186 1 275 34 342 126 59 81 68 113 69 244 1 110 0 118 -32 182 -18 36 -53 93
-78 127 -67 90 -207 234 -274 283 l-60 43 0 65 c0 91 10 140 27 140 25 0 80
64 92 105 6 22 11 63 11 91 0 47 -3 55 -35 83 -33 29 -35 34 -35 96 0 68 -14
104 -54 137 -20 16 -23 27 -62 273 -18 111 -102 307 -175 405 -50 68 -170 182
-274 262 -92 70 -93 72 -92 164 l1 80 27 -4 c52 -8 111 31 152 100 20 35 37
72 37 84 0 11 26 72 58 135 105 207 157 406 156 604 0 119 -2 135 -26 186 -28
59 -100 132 -153 154 -16 7 -56 16 -87 19 -40 5 -141 43 -330 122 -150 63
-274 117 -276 119 -2 2 24 11 58 21 59 16 153 75 204 128 21 21 104 142 125
184 6 12 16 22 20 22 5 0 67 -55 137 -121 142 -134 251 -211 361 -255 l73 -29
0 -52 c0 -63 17 -83 69 -83 30 0 47 9 92 49 l55 49 60 -20 c38 -13 95 -22 160
-25 100 -5 102 -5 134 24 46 41 45 84 -5 159 -105 158 -114 184 -82 236 11 18
35 76 53 128 33 95 34 95 34 47 0 -26 -9 -90 -21 -142 -27 -125 -23 -184 12
-204 23 -13 40 -13 125 -2 229 31 360 134 420 330 17 55 18 209 3 300 -20 121
-96 301 -212 501 -100 172 -244 476 -277 580 -18 58 -44 139 -58 180 -14 41
-29 91 -33 110 -4 19 -19 81 -33 138 -34 135 -52 218 -81 381 -30 162 -34 394
-10 561 17 114 18 266 4 344 -9 47 -8 51 25 90 19 23 56 85 82 136 l49 95 0
100 c-1 120 -16 180 -84 320 -68 140 -69 147 -20 263 56 134 69 178 69 244 0
89 -28 235 -60 319 -50 126 -60 170 -60 259 0 73 3 91 23 120 53 81 62 211 23
338 -48 159 -48 149 -46 492 1 105 -2 119 -26 165 -14 28 -53 102 -85 167
l-59 116 0 194 c0 310 -27 416 -131 513 -33 29 -59 59 -59 66 0 29 -98 189
-149 243 -60 63 -282 234 -371 285 -59 34 -214 142 -332 232 -65 49 -74 61
-86 105 -15 56 -51 108 -90 128 -15 7 -85 33 -157 56 -144 47 -218 90 -328
189 -104 94 -169 138 -242 165 -77 30 -257 72 -335 80 -71 7 -208 42 -227 58
-8 7 -39 44 -68 83 -134 177 -306 226 -865 245 -405 14 -1169 10 -1255 -6z
m1338 -84 c125 -5 256 -14 290 -21 123 -22 213 -41 242 -52 61 -22 129 -77
190 -154 74 -94 107 -113 245 -137 423 -77 446 -86 655 -272 99 -87 159 -120
330 -178 133 -45 152 -55 172 -84 18 -28 20 -37 10 -53 -10 -16 -6 -24 23 -55
55 -56 161 -136 350 -261 340 -227 453 -322 525 -444 43 -75 51 -110 36 -167
-10 -37 -19 -46 -84 -83 -182 -106 -238 -151 -429 -342 -105 -105 -209 -214
-231 -242 -84 -108 -302 -344 -392 -426 -107 -98 -352 -297 -427 -347 -70 -47
-106 -59 -253 -92 -55 -12 -311 -76 -584 -146 -178 -45 -260 -54 -279 -31 -23
27 5 83 75 149 108 103 295 298 364 378 35 41 78 91 95 110 18 19 51 60 74 90
24 30 59 73 80 95 55 60 218 285 365 505 166 247 282 470 227 436 -5 -3 -35
-55 -65 -115 -48 -94 -194 -325 -294 -466 -131 -183 -231 -316 -277 -365 -23
-25 -107 -124 -187 -220 -81 -97 -217 -244 -307 -330 -103 -100 -168 -171
-182 -200 -19 -37 -42 -57 -125 -113 -127 -83 -228 -136 -279 -144 l-39 -6 8
59 c8 65 33 108 118 201 64 70 197 247 197 262 0 26 -23 6 -77 -65 -32 -42
-79 -102 -106 -133 -69 -82 -156 -198 -181 -241 -28 -50 -139 -147 -201 -175
-27 -13 -70 -25 -95 -26 -43 -3 -45 -2 -43 24 3 42 62 117 227 287 147 151
181 190 287 322 27 35 76 90 108 123 32 33 98 105 146 160 49 55 157 174 241
265 187 202 272 310 358 454 36 61 90 147 120 191 37 54 51 83 44 90 -6 7 -15
3 -24 -10 -37 -51 -68 -99 -141 -218 -83 -137 -187 -281 -262 -362 -140 -153
-396 -432 -472 -515 -48 -52 -111 -124 -140 -160 -106 -134 -137 -169 -289
-325 -149 -154 -240 -269 -240 -305 0 -22 -91 -108 -153 -145 -46 -26 -53 -27
-125 -22 -169 14 -308 65 -436 158 -48 35 -100 72 -115 81 -14 10 -26 24 -26
32 0 7 -25 42 -55 77 -31 35 -73 90 -95 123 -45 67 -206 268 -268 337 -23 25
-87 95 -142 155 -55 60 -107 120 -117 134 -13 20 -19 22 -29 13 -17 -17 1 -43
145 -201 170 -188 214 -241 317 -377 49 -66 116 -154 149 -197 32 -42 56 -79
53 -82 -10 -9 -136 -7 -169 3 -148 45 -143 42 -258 153 -69 67 -116 106 -125
102 -8 -3 -51 -14 -94 -25 -70 -18 -100 -20 -241 -16 -205 7 -301 19 -401 51
-44 14 -88 26 -98 26 -10 0 -39 -23 -64 -50 -26 -28 -69 -63 -97 -79 -65 -37
-180 -71 -240 -71 -43 0 -49 -3 -64 -32 -9 -17 -30 -46 -47 -64 -40 -42 -144
-104 -175 -104 -35 0 -43 -8 -83 -75 -51 -87 -159 -199 -193 -200 -24 -2 -34
-14 -77 -95 -46 -87 -49 -100 -51 -170 -1 -89 -20 -134 -98 -230 l-53 -65 -5
-160 c-4 -116 -10 -170 -21 -195 -9 -19 -23 -55 -30 -80 -11 -35 -32 -63 -97
-125 -46 -44 -87 -89 -91 -100 -5 -10 -2 -42 5 -70 8 -27 14 -94 14 -147 0
-84 -4 -105 -26 -154 -26 -56 -26 -58 -9 -93 57 -116 65 -151 65 -273 0 -107
3 -124 30 -192 38 -98 143 -467 229 -808 105 -414 163 -571 284 -768 210 -342
507 -559 1039 -761 l128 -48 79 9 c94 11 166 41 312 132 152 95 190 116 260
144 113 44 218 66 344 71 130 6 163 2 422 -51 205 -43 288 -45 508 -16 183 24
405 26 527 5 137 -24 221 -54 417 -147 58 -28 131 -61 161 -75 30 -14 80 -40
110 -58 51 -31 62 -33 165 -37 l110 -5 130 47 c528 193 853 427 1065 765 123
197 189 374 295 790 88 344 194 711 230 796 18 44 29 81 24 86 -8 8 -2 41 32
176 9 35 13 38 37 32 26 -5 277 44 337 67 140 53 210 93 318 182 26 21 50 37
53 33 26 -26 31 -205 10 -353 -25 -171 -29 -375 -11 -494 43 -286 165 -760
261 -1011 27 -72 107 -233 242 -484 196 -367 212 -409 219 -595 5 -122 3 -141
-16 -192 -29 -75 -101 -155 -167 -184 -52 -23 -210 -52 -221 -40 -3 3 2 45 13
93 13 60 19 128 19 213 0 112 -3 130 -23 170 -34 65 -80 109 -230 222 -145
110 -214 189 -247 281 -22 64 -29 72 -44 53 -10 -12 -9 -26 8 -71 40 -107 102
-177 264 -300 177 -133 164 -120 144 -143 -9 -10 -17 -31 -17 -46 0 -30 -39
-182 -65 -256 -30 -84 -104 -211 -184 -313 -82 -105 -156 -187 -170 -187 -4 0
-2 35 5 78 18 109 17 338 -2 447 -8 50 -26 118 -40 153 -13 34 -35 91 -49 126
-14 36 -25 72 -25 80 0 9 -4 16 -8 16 -5 0 -16 82 -25 183 -21 217 -29 293
-62 537 -14 102 -25 200 -25 218 0 32 -16 42 -36 22 -9 -9 6 -184 21 -250 4
-13 9 -49 11 -80 3 -30 9 -71 14 -90 5 -19 11 -69 15 -110 7 -90 23 -260 36
-387 12 -119 12 -385 -1 -417 -8 -23 -74 -66 -99 -66 -15 0 -58 89 -96 197
-31 86 -92 199 -176 323 -75 112 -319 330 -354 316 -29 -11 -14 -31 66 -91
131 -98 244 -223 325 -360 40 -66 84 -154 98 -195 44 -124 86 -207 111 -220
20 -11 30 -9 75 16 85 46 90 58 90 196 0 138 9 147 47 48 42 -111 51 -151 63
-279 15 -150 6 -291 -17 -291 -9 0 -57 18 -108 40 -104 46 -214 129 -341 256
-45 45 -121 109 -171 142 -115 77 -279 224 -318 284 -30 47 -57 58 -63 26 -6
-31 139 -183 277 -289 31 -25 33 -29 26 -68 -8 -51 -105 -202 -160 -250 -37
-32 -127 -81 -151 -81 -7 0 -9 28 -6 83 6 109 -12 218 -46 280 -30 55 -155
195 -184 206 -15 5 -9 17 45 82 81 96 183 272 240 414 46 115 61 157 101 289
l24 80 58 16 c82 23 168 61 270 120 275 158 422 334 536 640 46 123 56 155 67
215 6 28 22 103 36 169 25 120 31 225 16 303 -7 37 -5 46 19 75 55 66 70 111
70 200 0 66 -5 93 -24 134 -26 57 -42 72 -59 55 -7 -7 -3 -26 16 -65 23 -46
27 -68 27 -138 0 -76 -3 -89 -29 -129 -16 -24 -48 -59 -72 -77 -24 -18 -96
-72 -159 -121 -63 -48 -125 -93 -138 -100 -53 -28 -121 -41 -220 -41 -83 0
-104 -3 -109 -15 -8 -23 2 -28 68 -33 52 -4 154 9 195 25 10 4 14 -4 14 -28 0
-19 -4 -39 -8 -44 -15 -22 -69 -53 -146 -84 -86 -34 -140 -40 -150 -16 -13 35
-34 11 -69 -77 -19 -51 -47 -133 -61 -183 -47 -168 -84 -310 -106 -405 -136
-579 -205 -781 -341 -1000 -70 -114 -211 -280 -294 -346 -33 -26 -80 -64 -105
-85 -79 -65 -405 -241 -555 -299 -132 -51 -248 -102 -256 -112 -17 -24 -341
-138 -549 -193 -283 -74 -546 -111 -855 -121 -453 -14 -946 54 -1421 197 -93
28 -179 53 -191 56 -12 3 -28 11 -34 19 -6 8 -23 14 -38 14 -14 0 -75 21 -136
46 -60 25 -157 65 -215 88 -397 163 -686 351 -867 566 -101 120 -148 192 -222
344 -89 184 -137 342 -247 821 -14 61 -34 142 -44 180 -10 39 -33 124 -50 190
-41 157 -118 383 -142 418 -24 33 -58 35 -99 5 l-30 -23 -57 61 c-31 33 -77
84 -100 113 -24 28 -92 89 -150 133 -177 136 -286 256 -312 345 -15 48 -2 139
26 181 16 24 16 24 37 4 38 -34 139 -89 239 -132 97 -41 97 -41 210 -38 105 3
113 4 116 23 3 20 -2 20 -105 17 l-108 -3 -105 44 c-274 114 -388 265 -406
537 l-5 75 48 -51 c98 -105 262 -204 428 -261 116 -39 251 -56 266 -32 15 24
11 26 -71 32 -83 7 -225 49 -315 94 -94 48 -242 153 -284 202 -46 56 -81 128
-81 170 0 46 25 113 68 186 23 38 42 77 42 87 0 15 8 13 63 -17 152 -83 334
-127 587 -140 145 -8 180 0 180 41 0 21 -3 25 -17 18 -28 -14 -340 -9 -408 5
-87 19 -242 70 -297 97 -74 37 -164 127 -182 181 -16 48 -21 139 -9 206 l6 38
31 -29 c71 -68 136 -94 336 -135 41 -8 104 -21 140 -29 90 -18 361 -18 383 1
10 7 17 16 17 20 0 4 -60 5 -132 3 -102 -3 -159 1 -243 16 -323 59 -392 81
-468 152 -56 51 -77 94 -77 157 0 75 24 153 85 272 37 72 55 121 55 145 0 20
2 36 6 36 3 0 35 -24 72 -53 129 -103 265 -177 490 -266 124 -49 179 -62 278
-64 64 -2 79 1 79 13 0 11 -23 18 -96 27 -109 14 -164 30 -335 103 -214 90
-390 203 -494 317 -42 46 -50 61 -50 94 0 22 -4 48 -9 57 -5 9 -6 58 -2 108 6
86 8 93 44 138 58 70 72 74 112 36 55 -53 103 -61 455 -70 173 -5 344 -13 380
-18 92 -14 339 -78 416 -109 57 -22 163 -90 202 -130 18 -18 41 -16 49 3 7 18
-18 41 -107 102 -83 57 -150 83 -336 132 -162 43 -331 60 -609 60 -258 1 -356
12 -403 47 -15 11 -39 44 -54 73 -27 51 -28 56 -28 229 0 189 13 271 50 318
11 14 20 30 20 36 0 6 32 64 71 129 38 64 82 145 97 180 26 61 27 69 24 223
-1 88 -4 170 -6 182 -3 13 -1 25 5 28 5 4 9 0 9 -9 0 -27 119 -174 180 -223
56 -44 152 -121 320 -258 129 -104 318 -310 555 -604 92 -115 329 -355 403
-409 37 -27 91 -62 120 -77 47 -25 54 -27 68 -14 13 13 3 22 -83 74 -80 49
-126 88 -252 215 -85 85 -180 187 -211 226 -297 373 -460 536 -827 827 -121
95 -217 202 -242 270 -14 36 -14 128 0 164 19 51 69 92 139 113 122 38 169 82
310 291 228 338 268 381 375 394 63 8 93 -3 152 -57 104 -96 227 -271 358
-510 90 -164 104 -188 157 -274 30 -49 101 -172 158 -274 56 -102 106 -189
110 -195 15 -21 192 -377 264 -532 93 -202 164 -307 431 -635 33 -40 67 -85
77 -98 13 -20 19 -22 29 -13 16 16 -13 60 -131 203 -193 235 -277 360 -367
550 -163 344 -428 835 -564 1046 -21 33 -39 66 -39 73 0 7 -11 27 -24 44 -13
18 -56 91 -96 162 -119 214 -215 356 -292 436 -40 42 -84 82 -97 91 l-25 15
28 36 c34 45 148 129 225 167 31 15 92 39 136 53 120 38 208 73 322 128 57 27
106 49 108 49 2 0 86 39 187 86 150 70 198 88 268 99 133 22 292 30 319 16 42
-23 59 -87 126 -466 15 -88 58 -377 91 -620 17 -129 77 -543 99 -690 16 -109
68 -362 95 -465 11 -41 32 -127 46 -190 56 -242 137 -473 228 -645 23 -44 45
-88 49 -97 15 -42 -5 -11 -64 95 -209 376 -441 729 -643 983 -99 124 -513 578
-531 582 -38 9 -9 -32 143 -199 92 -102 189 -212 216 -244 28 -33 69 -80 92
-105 204 -219 627 -885 829 -1305 161 -336 193 -390 216 -368 9 9 5 22 -19 60
-17 27 -59 107 -92 178 -34 72 -79 165 -101 208 -56 111 -48 108 19 -8 103
-179 305 -475 324 -475 26 0 14 37 -35 102 -173 234 -343 533 -460 809 -47
110 -123 364 -152 509 -9 47 -23 108 -31 136 -8 28 -19 75 -24 105 -5 30 -20
108 -34 174 -13 66 -34 181 -46 255 -11 74 -27 173 -35 220 -8 47 -21 144 -30
215 -9 72 -23 173 -30 225 -8 52 -31 203 -50 335 -19 132 -42 274 -49 315 -8
41 -22 113 -31 160 -18 98 -20 106 -43 178 -17 53 -16 54 5 71 19 16 88 45
248 106 103 39 157 54 260 71 55 9 105 18 110 19 24 8 1102 4 1308 -5z m3142
-1900 c39 -24 77 -79 101 -146 14 -40 18 -95 22 -304 2 -140 8 -259 12 -265 4
-5 41 -76 84 -157 74 -142 76 -149 76 -217 0 -39 -5 -73 -11 -77 -6 -3 -9 -15
-6 -25 12 -46 -143 -211 -270 -286 -101 -60 -318 -107 -618 -133 -210 -18
-476 -69 -545 -105 -29 -15 -48 -40 -38 -51 3 -2 25 4 49 15 91 40 318 82 573
106 444 41 612 107 795 310 35 39 68 72 73 74 7 2 9 -34 7 -100 -3 -115 2
-149 37 -261 53 -169 13 -310 -101 -352 -11 -4 -85 -14 -165 -21 -107 -10
-167 -22 -230 -43 -84 -29 -102 -37 -275 -124 -49 -25 -124 -60 -165 -78 -89
-39 -187 -106 -234 -161 l-34 -40 -25 33 c-35 46 -81 134 -99 191 l-16 49 41
29 c22 16 44 29 49 29 5 0 35 15 66 33 55 32 132 60 199 73 34 7 61 29 49 41
-24 25 -307 -90 -405 -164 -32 -25 -37 -26 -80 -14 -93 25 -225 95 -264 141
-56 66 -50 92 38 159 72 55 73 76 3 85 -29 3 -76 6 -105 6 -109 0 -258 45
-297 88 -15 18 -17 30 -12 73 9 67 27 92 102 142 100 67 368 293 489 412 62
61 177 183 256 273 79 90 181 204 225 255 158 178 321 316 477 402 72 40 127
88 127 111 0 19 7 18 45 -6z m-1800 -1597 c8 -11 10 -26 4 -46 -21 -74 57
-146 200 -184 55 -14 153 -19 171 -8 5 3 31 12 57 20 l48 14 -38 -31 c-39 -31
-97 -132 -97 -167 0 -22 89 -131 107 -131 7 0 13 -4 13 -9 0 -5 44 -28 98 -51
164 -72 158 -68 178 -116 10 -24 22 -44 26 -44 4 0 8 -8 8 -17 0 -9 7 -24 16
-34 9 -10 23 -31 32 -48 9 -16 44 -58 77 -93 39 -40 60 -69 57 -81 -2 -10 2
-25 9 -33 7 -8 15 -54 19 -102 9 -104 40 -178 85 -203 17 -9 33 -14 38 -12 4
2 7 -1 7 -7 0 -6 5 -8 10 -5 6 4 1 -18 -11 -47 -42 -103 -52 -144 -60 -243
-12 -149 -11 -163 25 -235 42 -85 83 -136 121 -151 49 -19 55 -33 39 -87 -8
-25 -12 -52 -10 -59 3 -7 0 -15 -5 -19 -7 -4 -8 -33 -4 -80 l7 -74 -30 28
c-60 56 -328 97 -623 95 -126 -1 -168 -13 -322 -90 -80 -40 -414 -178 -577
-239 -63 -23 -160 -61 -214 -83 -55 -23 -114 -45 -132 -50 -31 -8 -33 -7 -37
17 -4 26 -4 25 -6 -4 -1 -30 -2 -31 -213 -110 -157 -58 -230 -80 -277 -84 -69
-5 -90 -23 -47 -40 30 -11 36 -24 7 -15 -37 11 -30 -22 14 -65 37 -36 49 -42
84 -42 22 0 43 -3 46 -7 2 -5 -26 -29 -63 -54 -112 -76 -213 -168 -259 -236
l-43 -65 37 -40 38 -41 -37 34 c-31 28 -38 31 -43 18 -11 -26 10 -51 97 -117
89 -67 249 -153 320 -171 90 -23 264 -58 293 -59 17 0 48 -9 70 -20 22 -11 48
-19 57 -20 31 0 68 -23 68 -41 0 -10 5 -21 10 -24 6 -4 8 -11 5 -16 -7 -11 42
-35 52 -26 3 4 -1 15 -9 24 -9 10 -24 43 -34 73 -23 70 -29 76 -83 76 -26 0
-46 4 -49 12 -2 6 -14 12 -27 12 -40 0 -297 49 -345 66 -25 9 -51 17 -58 20
-10 3 -10 8 -1 22 10 16 2 34 -53 118 -35 54 -72 107 -82 117 -17 16 -16 17
11 17 16 0 44 9 63 20 82 47 79 47 111 12 16 -17 29 -34 29 -38 0 -4 17 -28
37 -53 110 -137 228 -207 387 -231 131 -20 254 4 367 70 64 38 177 141 181
164 0 6 2 16 2 21 1 6 19 44 39 85 40 81 67 185 67 264 l0 49 175 -7 c118 -4
182 -3 195 4 11 6 20 8 20 4 0 -12 -132 -257 -183 -339 -59 -96 -81 -120 -171
-193 -60 -48 -67 -57 -53 -67 14 -10 9 -16 -39 -39 -118 -58 -272 -96 -391
-96 -81 0 -90 -4 -85 -40 l4 -30 127 6 c100 5 138 11 185 30 33 13 67 24 77
24 9 0 73 29 143 65 69 36 133 65 140 65 8 0 43 15 77 33 79 41 307 268 379
377 62 93 73 105 125 130 56 27 82 55 66 73 -6 8 -8 17 -4 20 14 14 -28 43
-144 99 -185 88 -271 109 -483 115 -152 4 -190 2 -284 -16 -60 -12 -111 -20
-113 -18 -2 3 34 14 79 25 46 12 126 32 178 46 52 14 129 28 170 32 41 4 106
17 143 30 38 13 103 26 145 29 42 4 118 15 167 25 50 10 164 33 255 51 168 33
203 43 254 77 26 18 29 19 45 3 10 -9 25 -20 35 -26 15 -9 14 -17 -9 -103 -13
-51 -24 -100 -22 -110 1 -9 -14 -60 -34 -112 -52 -137 -70 -192 -74 -220 -2
-14 -13 -54 -24 -90 -11 -36 -56 -209 -100 -385 -92 -367 -139 -511 -221 -680
-127 -262 -307 -468 -560 -642 -98 -67 -356 -195 -545 -270 -86 -35 -95 -36
-220 -37 l-130 -1 -110 56 c-440 226 -615 277 -910 265 -88 -3 -209 -13 -270
-21 -202 -27 -325 -19 -610 40 -156 32 -179 35 -230 35 -89 0 -270 -29 -353
-57 -101 -33 -193 -80 -322 -163 -123 -79 -232 -129 -298 -137 -52 -6 -169 16
-247 46 -83 32 -318 146 -424 205 -110 62 -305 213 -360 279 -19 23 -58 67
-86 97 -59 63 -174 253 -234 387 -63 140 -105 277 -201 653 -128 503 -146 563
-193 680 -28 68 -31 89 -37 220 -5 138 -7 148 -38 208 -37 73 -40 92 -12 99
10 3 23 15 26 27 10 28 5 268 -6 305 -7 26 -5 31 21 41 45 19 147 135 179 204
27 58 48 128 56 186 2 14 8 46 15 72 9 35 9 54 1 72 -18 40 -2 76 42 91 22 8
42 19 46 26 4 6 11 42 14 80 5 49 11 69 21 69 18 0 23 22 24 105 0 39 5 71 11
73 5 2 10 11 10 21 0 9 4 21 8 27 4 5 14 27 21 49 12 35 54 85 72 85 10 0 49
37 49 47 0 5 11 20 25 33 14 13 25 29 25 37 0 7 3 13 8 13 4 0 25 26 47 56 36
51 77 84 104 84 19 0 131 83 191 141 35 35 68 59 81 59 30 0 197 57 239 82 19
11 51 38 71 60 44 47 57 49 164 19 69 -19 113 -23 314 -28 166 -4 257 -2 316
7 l83 13 48 -44 c26 -24 55 -51 64 -59 112 -102 202 -138 372 -147 74 -4 115
-11 131 -22 192 -130 212 -141 299 -170 119 -39 261 -65 311 -57 50 8 98 33
175 91 54 41 71 48 132 56 77 9 167 50 224 100 37 32 47 34 111 24 56 -10 125
17 284 108 l132 76 56 -10 c61 -11 80 -10 188 15 39 9 115 26 170 37 55 11
107 23 115 26 8 4 23 8 33 10 9 2 25 4 35 6 9 2 30 9 45 15 16 7 38 12 51 12
12 0 26 4 32 9 14 13 172 51 215 51 20 0 42 7 49 15 16 19 20 19 35 -2z m2096
-485 c0 -95 7 -123 78 -310 30 -80 47 -245 33 -308 -12 -51 -75 -209 -118
-296 -38 -77 -105 -137 -213 -193 -115 -59 -211 -86 -376 -105 -60 -7 -321
-24 -352 -22 l-33 1 0 88 c0 65 6 102 21 145 12 31 26 75 32 98 11 40 12 41
101 73 69 24 108 31 160 31 80 0 225 17 276 32 48 14 130 67 130 84 0 20 -7
18 -60 -16 -59 -38 -184 -60 -297 -53 -71 4 -88 1 -197 -35 -66 -22 -125 -38
-132 -35 -34 13 -89 129 -104 223 -23 137 -31 165 -51 186 -19 21 -20 26 -9
54 18 44 129 123 250 176 58 26 150 71 206 100 157 84 255 114 419 129 77 7
158 20 180 28 22 8 43 15 48 16 4 0 7 -41 8 -91z m-20 -1050 c-54 -200 -169
-325 -386 -419 -97 -42 -103 -44 -222 -47 -96 -3 -129 0 -153 12 -17 8 -37 13
-45 10 -25 -10 -108 85 -129 146 -11 30 -21 60 -23 67 -3 8 5 10 29 7 78 -13
393 21 554 60 124 30 320 140 360 202 27 41 32 27 15 -38z m102 -66 c83 -169
96 -292 41 -408 -91 -194 -255 -340 -479 -425 -64 -24 -281 -69 -334 -69 -44
0 -57 13 -105 108 -24 47 -27 63 -25 144 1 49 9 117 17 149 l16 59 116 0 c136
0 179 11 326 81 84 40 116 62 176 122 41 39 86 91 102 114 32 47 86 176 86
204 0 36 15 17 63 -79z m-1353 -757 c47 -3 134 -15 195 -25 60 -11 122 -20
138 -20 22 0 28 -4 25 -17 -5 -26 -74 -60 -158 -77 -81 -16 -431 -71 -520 -81
-155 -18 -310 -59 -485 -130 -49 -19 -117 -46 -150 -59 -33 -13 -159 -69 -280
-124 -121 -55 -271 -117 -334 -137 -107 -35 -121 -37 -205 -33 -104 6 -179 36
-215 86 l-20 29 48 -5 c48 -4 146 21 210 54 14 8 32 14 39 14 7 0 63 18 125
41 119 43 117 43 187 69 57 21 260 99 280 107 8 3 20 7 25 9 6 1 91 34 190 74
189 75 280 117 303 138 7 6 19 12 26 12 7 0 32 10 57 22 24 12 73 32 109 45
68 25 133 26 410 8z m-7010 -330 c6 -8 9 -22 6 -33 -3 -10 -10 -92 -16 -183
-8 -144 -7 -179 10 -284 11 -67 29 -151 40 -187 59 -192 231 -486 365 -624 90
-92 392 -265 491 -280 l41 -6 32 -110 c43 -152 113 -326 172 -430 l50 -86 -97
-189 c-53 -104 -102 -197 -109 -206 -11 -16 -17 -15 -85 8 -84 28 -135 31
-185 10 -30 -12 -41 -12 -74 -1 -72 26 -119 56 -216 136 -54 44 -104 80 -112
80 -27 0 -4 72 75 230 96 194 174 312 276 418 57 60 76 86 68 94 -8 8 -26 -4
-67 -42 -104 -99 -205 -251 -325 -490 -59 -117 -67 -145 -81 -266 l-12 -105
-54 53 c-77 75 -163 207 -203 313 l-35 90 0 185 c0 183 1 187 50 415 45 209
49 242 49 365 1 156 -13 338 -26 346 -5 3 -16 0 -25 -7 -13 -12 -14 -27 -8
-99 27 -332 26 -355 -45 -690 -40 -189 -52 -439 -26 -539 9 -35 14 -66 12 -68
-9 -9 -46 19 -46 35 0 9 -11 41 -25 70 -20 44 -32 56 -70 73 -30 13 -63 19
-98 18 -48 -2 -63 3 -185 71 l-132 74 0 85 c0 201 41 333 170 546 122 201 146
255 243 545 106 317 145 455 144 505 0 34 35 175 44 175 4 0 12 -7 19 -15z
m73 -155 c9 0 18 -4 21 -9 4 -5 50 -41 104 -79 65 -47 115 -92 151 -138 30
-38 74 -86 99 -107 38 -32 49 -37 76 -31 17 3 35 10 39 14 14 13 44 0 55 -23
19 -41 37 -92 34 -99 -1 -5 2 -8 8 -8 5 0 9 -3 8 -7 -1 -5 9 -30 22 -58 18
-39 24 -46 28 -30 3 13 11 -2 23 -45 21 -74 25 -115 9 -90 -14 22 -12 4 10
-80 11 -41 22 -86 26 -100 3 -14 9 -34 14 -45 4 -11 11 -28 14 -38 3 -10 10
-15 16 -12 5 3 10 2 10 -4 0 -5 -6 -11 -12 -13 -10 -4 -10 -10 0 -29 l12 -24
-5 25 -5 25 12 -24 c10 -19 10 -25 0 -29 -6 -2 -12 -8 -12 -14 0 -5 6 -8 12
-6 8 3 18 -14 26 -45 14 -56 9 -78 -7 -26 -7 26 -9 28 -10 12 -1 -13 8 -32 18
-42 10 -10 24 -42 30 -70 14 -67 12 -77 -4 -26 l-13 40 -1 -32 c-1 -17 6 -39
14 -47 18 -18 40 -74 32 -83 -18 -17 -224 78 -352 163 -110 72 -153 111 -218
196 -186 245 -299 500 -328 742 -13 108 -1 336 16 313 7 -10 19 -17 28 -17z
m8055 -115 c1 -58 -9 -122 -44 -285 -42 -194 -132 -430 -208 -541 -81 -120
-213 -239 -368 -332 -115 -69 -256 -127 -310 -127 -22 0 -23 30 -3 70 8 16 16
41 17 55 1 14 5 25 8 25 3 0 6 8 7 18 2 41 13 96 21 101 4 3 9 19 10 35 1 17
7 33 13 37 7 4 9 16 6 28 -3 12 -2 21 2 21 7 0 29 82 34 125 2 11 8 30 15 43
7 12 10 32 6 44 -4 13 -2 18 4 14 7 -4 15 10 22 36 38 155 75 236 110 244 97
21 163 45 228 84 85 51 112 81 121 137 5 32 16 45 71 85 36 26 82 62 104 80
59 50 86 66 111 64 20 -1 22 -6 23 -61z m-1948 -100 c15 -9 12 -83 -5 -150
-47 -178 -192 -326 -374 -379 -103 -30 -265 -14 -364 35 -108 55 -217 171
-252 269 -19 54 -20 50 13 50 15 0 49 7 75 15 52 16 148 26 176 18 16 -4 19
-20 24 -121 8 -164 10 -171 65 -217 28 -23 40 -27 76 -23 61 7 96 27 129 74
27 38 29 47 33 170 3 71 7 148 10 171 5 40 8 43 47 54 23 6 62 17 87 25 25 7
56 15 70 17 33 6 177 0 190 -8z m-8046 -520 c125 -27 238 -99 318 -203 24 -31
48 -63 55 -69 14 -16 39 -95 47 -150 6 -39 4 -43 -14 -43 -13 0 -28 -13 -41
-35 -26 -44 -33 -44 -25 -1 9 47 -17 166 -50 225 -41 77 -119 149 -204 190
-72 34 -79 36 -185 36 -130 0 -195 -21 -278 -89 -122 -99 -171 -207 -165 -360
2 -72 0 -92 -9 -89 -16 6 -16 6 3 -53 9 -27 24 -55 32 -61 9 -7 13 -13 9 -13
-22 0 103 -124 156 -154 54 -31 150 -56 219 -56 63 0 157 23 211 50 21 11 39
20 40 20 1 0 2 -17 1 -37 -1 -34 -5 -39 -40 -55 -60 -26 -170 -41 -254 -35
-218 17 -404 158 -469 354 -12 34 -21 79 -20 100 1 35 2 36 10 13 7 -20 8 -15
5 19 -5 44 -3 49 74 216 54 118 198 240 318 270 115 28 161 30 256 10z m65
-167 c49 -23 112 -67 149 -106 27 -29 29 -14 2 21 -29 37 -25 44 5 9 121 -144
107 -370 -33 -509 -162 -162 -420 -159 -582 6 -69 70 -101 143 -108 243 -5 73
3 112 17 89 8 -12 49 47 108 153 6 12 32 34 57 50 25 16 46 32 46 36 0 8 65
27 115 34 61 9 177 -5 224 -26z m333 -365 c-9 -16 -6 -18 24 -21 19 -1 57 -14
84 -28 59 -31 62 -48 29 -146 -25 -74 -114 -249 -141 -278 -53 -57 -238 27
-238 109 0 23 6 34 23 40 30 12 68 54 70 79 0 11 4 19 8 16 4 -2 16 8 27 23
34 50 35 59 3 23 -32 -34 -32 -34 -12 -4 11 18 37 48 56 67 19 19 35 45 35 56
0 27 28 96 36 88 3 -3 1 -14 -4 -24z m141 -554 c15 -6 27 -15 27 -21 0 -5 4
-7 9 -4 5 3 14 -1 21 -9 7 -8 19 -15 26 -15 8 0 14 -4 14 -9 0 -5 21 -18 48
-30 26 -12 56 -28 67 -34 12 -7 63 -37 115 -67 52 -30 99 -53 105 -52 5 2 7 1
3 -3 -4 -4 23 -23 60 -42 37 -19 69 -38 72 -43 3 -4 21 -15 40 -24 50 -22 143
-75 155 -88 22 -23 -42 7 -168 80 -188 108 -259 148 -507 287 -153 86 -226
135 -150 101 19 -9 47 -21 63 -27z m-1145 -480 c62 -60 72 -77 72 -123 0 -27
-4 -36 -17 -36 -36 0 -159 164 -146 196 10 26 38 14 91 -37z m9234 -58 l31
-29 -33 -94 c-35 -100 -136 -311 -152 -316 -5 -2 -21 -14 -36 -27 l-28 -23
-167 70 c-92 39 -167 73 -167 77 0 3 28 21 63 38 139 72 347 222 426 307 14
14 26 26 28 26 2 0 18 -13 35 -29z m-9336 -47 c34 -52 65 -80 78 -67 3 4 17 0
31 -7 l26 -14 -60 -60 c-83 -85 -103 -127 -99 -210 5 -76 15 -91 122 -171 84
-63 127 -87 145 -80 14 5 41 -11 41 -25 0 -4 -28 -26 -63 -49 -35 -22 -76 -54
-92 -71 -34 -36 -64 -38 -136 -11 -123 47 -227 162 -273 302 -24 71 -27 93
-21 149 4 36 13 76 20 90 8 14 14 21 15 15 0 -5 9 8 21 30 11 22 33 56 48 75
14 19 39 54 55 78 35 52 84 95 98 86 5 -3 25 -30 44 -60z m9444 -169 c31 -67
42 -145 38 -261 -2 -57 -3 -104 -3 -104 -10 -2 -211 92 -213 99 -2 7 1 18 8
26 12 15 98 187 124 249 8 20 17 36 20 36 3 0 15 -20 26 -45z m-9333 -90 c55
-3 103 -21 190 -73 39 -23 63 -44 63 -55 0 -25 -43 -105 -77 -144 l-28 -33
-105 80 c-58 44 -113 89 -122 101 -33 40 -17 167 17 139 8 -7 36 -13 62 -15z
m4270 -16 c59 -33 67 -43 53 -69 l-12 -23 -25 32 c-28 35 -48 41 -38 11 7 -24
-7 -26 -25 -5 -17 21 -29 19 -23 -4 3 -12 25 -25 64 -37 45 -15 59 -23 59 -39
0 -19 -56 -85 -72 -85 -12 0 -10 34 4 48 6 6 8 15 4 19 -4 5 -18 -5 -31 -21
-24 -31 -50 -28 -40 5 8 25 -11 25 -27 -1 -7 -11 -21 -20 -31 -20 -15 0 -16 3
-7 21 13 22 -1 49 -26 49 -17 0 -25 15 -18 34 9 22 25 20 64 -9 39 -29 71 -35
50 -10 -7 8 -19 15 -26 15 -23 0 -15 23 23 68 21 23 38 42 40 42 1 0 19 -9 40
-21z m221 -102 c10 -10 25 -17 34 -17 8 0 23 -9 33 -20 16 -18 20 -19 27 -5 6
9 23 15 48 15 l38 0 -31 -48 c-27 -41 -36 -47 -59 -44 -23 4 -26 7 -18 22 17
31 11 35 -16 9 l-27 -24 12 23 c14 26 7 57 -10 47 -6 -4 -8 -13 -5 -20 3 -8
-1 -18 -8 -24 -23 -19 -74 18 -78 54 l-3 30 -17 -30 c-22 -38 -23 -26 -2 19
19 38 49 43 82 13z m6315 -25 c3 -15 33 -69 66 -119 33 -50 58 -93 55 -95 -15
-16 -274 42 -274 61 0 3 23 32 50 64 27 32 57 71 67 87 22 37 29 38 36 2z
m-11253 -13 c0 -10 9 -46 21 -79 11 -33 18 -64 14 -70 -7 -12 12 -50 26 -50 6
0 3 7 -5 16 -9 8 -16 20 -16 26 0 6 15 -9 33 -32 31 -41 32 -46 24 -94 -23
-135 -29 -150 -72 -170 -47 -23 -167 -26 -230 -4 l-40 13 -3 90 c-2 73 0 92
13 102 9 6 30 39 46 72 45 97 122 191 155 191 8 0 14 5 14 11 0 5 5 7 10 4 6
-3 10 -15 10 -26z m9009 -17 c29 -16 59 -39 67 -50 23 -33 69 -29 101 9 23 27
30 30 72 25 25 -2 53 -5 61 -6 12 0 11 -3 -3 -11 -13 -7 -22 -7 -31 0 -10 8
-16 5 -24 -14 -7 -14 -20 -25 -31 -25 -11 0 -26 -9 -34 -21 -14 -20 -16 -20
-26 -2 -10 17 -10 17 -11 -2 0 -29 12 -43 40 -46 17 -3 25 -10 24 -22 -1 -9 3
-17 10 -17 6 0 23 -7 39 -14 35 -19 34 -14 -9 34 -39 43 -40 76 -1 84 93 19
98 19 110 -13 6 -17 21 -32 33 -35 29 -8 40 -37 20 -52 -9 -6 -16 -16 -16 -23
0 -6 -3 -11 -6 -11 -12 0 -43 45 -44 63 0 20 -13 22 -27 5 -20 -27 -21 -46 -2
-66 22 -24 21 -25 -48 -42 -61 -14 -76 -8 -71 30 3 19 0 26 -8 23 -7 -3 -19 5
-26 16 -14 23 -30 29 -22 7 8 -22 -29 -30 -46 -9 -8 10 -22 24 -31 31 -14 11
-16 8 -15 -25 0 -21 6 -42 11 -46 6 -4 -3 -5 -20 -1 -28 7 -40 16 -48 38 -2 5
-13 3 -26 -3 -20 -11 -26 -10 -42 7 -17 19 -19 48 -4 72 8 13 2 13 -30 -2 -20
-9 -28 -9 -38 2 -10 10 -9 12 6 7 9 -4 17 -2 17 3 0 6 -5 10 -10 10 -7 0 -7 7
0 20 6 11 8 25 5 30 -3 6 5 10 19 10 27 0 56 -23 56 -45 0 -20 40 -55 62 -55
23 0 53 56 36 66 -6 4 -14 2 -16 -4 -5 -16 -52 -15 -52 1 0 7 -9 23 -20 35
-12 12 -16 22 -10 22 5 0 10 5 10 11 0 5 -4 7 -10 4 -11 -7 -14 8 -3 18 8 9 2
11 62 -21z m-5217 -2 c8 -13 24 -20 44 -20 18 0 38 8 49 20 21 23 53 26 79 7
16 -12 15 -16 -16 -70 -38 -65 -51 -73 -36 -21 7 25 6 40 -1 47 -8 8 -11 7
-11 -3 -1 -25 -37 -61 -54 -54 -9 3 -14 9 -11 13 2 4 -14 18 -35 32 -22 13
-40 28 -40 32 0 5 -16 0 -35 -12 -23 -13 -35 -16 -36 -8 0 9 -2 9 -6 0 -7 -18
-52 -16 -59 2 -4 8 -13 15 -21 15 -8 0 -11 5 -8 10 4 6 13 7 23 1 12 -6 24 -5
36 5 11 7 29 11 42 8 12 -3 25 -1 28 5 12 18 55 12 68 -9z m-3048 1 c3 -4 24
-11 46 -15 l40 -6 0 -59 c0 -105 -35 -159 -82 -126 -13 8 -37 15 -54 15 -18 0
-38 8 -48 19 -20 22 -19 24 44 125 35 56 44 64 54 47z m4421 -57 c15 -20 33
-55 40 -79 13 -41 12 -45 -18 -94 -18 -28 -35 -51 -38 -51 -13 0 -20 52 -9 65
7 8 10 22 8 32 -3 14 -7 12 -22 -14 -17 -28 -22 -30 -45 -20 -42 17 -46 25
-26 47 10 11 15 23 11 27 -4 4 -11 1 -15 -6 -7 -10 -10 -8 -16 8 -10 32 -28
21 -30 -19 -1 -19 -6 -46 -10 -59 -8 -22 -6 -23 20 -17 19 5 35 1 54 -11 40
-27 90 -53 101 -53 6 0 22 -7 35 -16 20 -13 23 -20 15 -34 -9 -16 -15 -17 -40
-8 -17 5 -30 16 -30 24 0 24 -19 16 -26 -11 -5 -19 -13 -25 -35 -25 -28 0 -29
1 -24 44 3 26 1 47 -5 51 -5 3 -10 -2 -10 -12 0 -10 -9 -31 -20 -48 -28 -42
-25 -51 20 -77 22 -13 40 -29 40 -35 0 -7 5 -13 10 -13 14 0 13 33 -2 48 -9 9
-7 12 10 12 12 0 31 6 43 13 18 10 23 9 44 -16 l24 -27 10 32 c8 30 9 31 10 7
1 -14 -4 -40 -10 -57 -17 -48 -57 -61 -414 -136 -88 -19 -189 -35 -225 -37
l-65 -4 -21 61 c-30 83 -64 248 -64 309 0 27 4 46 8 40 8 -11 30 -26 82 -54
36 -19 74 -15 76 8 1 6 2 17 3 24 1 7 6 5 12 -5 6 -11 22 -18 40 -18 20 0 29
-4 26 -12 -2 -7 -14 -11 -27 -10 -18 3 -21 0 -16 -13 9 -24 -29 -74 -55 -72
-16 1 -19 6 -14 24 7 29 -8 30 -28 1 -14 -23 -15 -23 -36 -4 -11 11 -21 31
-21 45 l-1 26 -15 -28 c-11 -20 -12 -32 -4 -46 12 -24 25 -28 124 -37 65 -5
87 -12 119 -35 22 -16 45 -29 50 -29 6 0 20 -9 32 -20 19 -18 26 -19 51 -10
25 10 31 9 49 -13 11 -13 35 -27 54 -31 30 -5 32 -4 20 11 -8 9 -13 26 -11 37
3 21 2 21 -16 -1 -17 -19 -22 -20 -38 -9 -16 12 -17 16 -4 31 14 16 13 17 -6
11 -19 -6 -21 -3 -16 20 6 35 -11 25 -28 -16 -14 -34 -17 -35 -43 -15 -13 9
-17 20 -12 34 7 22 -4 28 -21 11 -16 -16 -44 -1 -44 23 0 15 -3 18 -11 10 -19
-19 -69 5 -69 33 0 28 11 30 44 9 25 -17 56 -11 56 11 0 8 5 14 10 14 6 0 10
-4 10 -10 0 -14 40 -33 78 -36 19 -1 41 -9 50 -17 19 -16 76 -37 100 -37 13 0
13 2 -1 18 -8 9 -17 31 -19 47 -3 23 -6 26 -11 13 -4 -10 -10 -26 -14 -35 -5
-14 -8 -10 -11 15 -3 29 -22 47 -22 22 0 -7 -14 -8 -37 -4 -50 9 -52 11 -46
34 6 24 21 25 59 6 20 -11 33 -12 46 -5 13 7 23 7 32 -1 10 -8 15 -6 20 6 7
18 -8 34 -33 34 -9 0 -11 8 -7 25 10 38 -11 30 -25 -10 -13 -34 -32 -45 -44
-25 -3 5 0 18 7 29 18 30 2 38 -21 10 -20 -24 -20 -24 -35 -4 -8 11 -14 25
-12 30 1 6 -4 15 -13 22 -12 9 -13 15 -5 23 9 9 22 9 54 0 23 -6 49 -9 57 -5
9 3 24 -2 33 -10 29 -26 33 9 4 36 -36 33 -32 59 9 59 43 -1 154 -25 169 -38
21 -16 58 -24 58 -13 0 6 -22 22 -50 36 -51 26 -60 41 -38 63 20 20 34 14 63
-24z m-1595 -4 c12 -16 27 -30 35 -30 14 0 45 -23 97 -72 16 -16 36 -28 45
-28 8 0 17 -9 20 -20 3 -11 11 -20 19 -20 12 0 74 -59 74 -70 0 -3 -4 -11 -9
-18 -11 -19 -81 15 -81 39 0 24 -18 33 -35 19 -14 -12 -20 -7 -16 14 1 5 -1
16 -4 24 -4 11 -8 12 -20 2 -12 -10 -15 -9 -15 4 0 9 -4 16 -10 16 -5 0 -18
10 -29 22 -17 17 -23 19 -36 8 -17 -14 -21 0 -4 17 9 9 6 10 -11 6 -21 -6 -22
-3 -16 21 3 14 2 25 -3 24 -5 -2 -21 10 -36 26 -21 22 -24 31 -13 37 20 13 25
11 48 -21z m1060 -2 c25 -6 54 -17 65 -24 11 -8 28 -14 38 -14 10 0 32 -7 50
-17 23 -12 28 -18 17 -22 -8 -3 -15 -14 -16 -23 0 -10 -1 -32 -2 -49 l-2 -31
-35 29 c-25 21 -33 34 -29 51 4 22 -9 31 -21 12 -7 -11 -45 19 -45 37 0 7 -4
13 -9 13 -15 0 -25 -21 -14 -29 6 -3 16 -17 23 -30 10 -20 9 -26 -9 -44 -18
-19 -21 -19 -21 -5 0 10 -9 22 -21 29 -14 7 -19 17 -15 30 3 10 9 29 12 42 l6
22 -21 -23 c-17 -20 -23 -21 -41 -10 -35 22 -8 87 30 72 8 -4 35 -11 60 -16z
m4240 -104 c22 -20 40 -45 40 -56 0 -15 5 -18 20 -14 11 3 29 8 40 12 24 6 60
-12 60 -31 0 -9 10 -15 26 -15 14 0 34 -10 43 -22 13 -15 24 -19 37 -14 16 6
15 9 -14 28 -17 11 -29 24 -26 29 7 12 41 12 49 -1 9 -15 95 -50 122 -50 15 0
38 14 59 35 30 32 37 34 57 24 12 -7 28 -20 34 -29 7 -10 25 -21 40 -25 21 -5
31 -2 44 16 l17 23 48 -20 c27 -10 54 -19 59 -19 16 0 23 -29 11 -50 -6 -11
-11 -21 -11 -22 0 0 -21 -4 -47 -8 -37 -6 -48 -4 -48 6 0 8 -7 22 -15 33 -13
17 -15 17 -29 3 -9 -9 -13 -23 -10 -31 5 -13 -1 -16 -30 -16 -24 0 -36 5 -36
14 0 8 -6 16 -14 19 -9 4 -12 15 -8 32 4 25 2 26 -28 23 -42 -4 -50 -25 -15
-38 21 -8 25 -13 16 -24 -6 -7 -8 -15 -6 -18 3 -3 -13 -8 -36 -12 -46 -7 -64
2 -73 40 -6 23 -8 23 -30 8 -22 -14 -25 -14 -33 1 -8 14 -11 12 -21 -10 -7
-15 -10 -30 -7 -35 3 -4 -5 -10 -16 -13 -25 -7 -45 10 -54 46 -5 19 -11 23
-27 19 -11 -2 -22 -11 -25 -18 -2 -7 -11 -10 -19 -7 -19 7 -18 23 1 23 9 0 15
9 15 24 0 24 0 24 -47 10 -55 -17 -93 -18 -93 -3 0 5 4 8 9 5 5 -3 9 6 9 19 0
28 -6 30 -42 14 -30 -14 -39 -42 -21 -66 11 -15 25 -17 73 -15 36 2 62 -1 67
-7 11 -20 -5 -49 -35 -61 -34 -14 -48 -40 -22 -40 24 0 62 28 62 45 0 27 63 6
98 -33 19 -21 40 -36 48 -34 8 2 14 -4 14 -12 0 -24 29 -46 61 -46 22 0 30 -6
35 -25 4 -16 17 -28 42 -36 28 -9 115 -79 99 -79 -3 0 -47 20 -98 44 -52 24
-105 46 -118 51 -12 4 -48 18 -79 32 l-57 26 35 12 c40 14 46 38 11 43 -20 3
-23 0 -18 -17 5 -19 2 -20 -44 -15 -53 6 -216 77 -236 103 -7 9 -12 30 -12 46
l0 30 13 -25 c8 -14 13 -27 11 -31 -2 -3 9 -3 26 -1 26 4 42 22 19 22 -5 0
-10 9 -10 19 0 11 -4 23 -10 26 -14 9 -13 21 4 37 7 8 17 25 21 38 7 22 6 23
-9 11 -9 -7 -16 -10 -16 -5 0 5 -4 5 -8 -1 -4 -5 -15 -16 -24 -23 -15 -12 -17
-9 -16 27 0 40 28 91 49 91 5 0 27 -16 49 -36z m-5271 -54 c19 -5 51 -25 70
-44 20 -19 53 -42 73 -51 21 -8 44 -24 50 -35 7 -11 21 -20 32 -20 22 0 71
-48 104 -102 15 -24 35 -41 58 -48 19 -7 40 -20 47 -31 15 -25 27 -24 27 1 0
12 -10 25 -25 32 -22 10 -25 16 -20 40 7 31 -8 38 -24 11 -5 -10 -11 -16 -13
-13 -14 17 -48 69 -48 73 0 25 70 4 92 -28 11 -15 32 10 25 29 -3 8 -21 19
-39 24 -26 7 -32 14 -31 30 4 31 -14 27 -50 -10 l-30 -33 6 33 c4 18 3 31 -2
28 -8 -6 -38 22 -30 27 2 2 21 8 41 14 30 9 40 8 49 -3 6 -8 15 -14 20 -14 15
0 10 30 -6 36 -18 7 -20 34 -2 34 6 0 24 -10 39 -23 22 -18 30 -37 41 -102 13
-68 13 -81 1 -88 -20 -12 -17 -29 11 -67 20 -26 24 -41 19 -67 -4 -23 0 -42
14 -65 43 -72 42 -74 -50 -102 -116 -35 -234 -55 -368 -62 -100 -6 -117 -5
-129 10 -7 9 -11 25 -8 36 3 11 0 20 -6 21 -7 0 -1 5 13 10 14 6 34 8 45 5 11
-3 37 -3 58 1 32 5 39 10 44 35 6 28 7 29 52 22 53 -8 84 -21 76 -34 -3 -4 8
-11 25 -15 16 -4 32 -11 35 -16 11 -16 25 -10 25 11 0 16 4 18 18 11 9 -4 31
-13 48 -18 l32 -10 -10 36 c-12 45 -25 60 -34 38 -8 -22 -21 -22 -28 1 -3 10
-15 18 -26 19 -16 1 -20 -2 -15 -18 9 -26 3 -24 -35 11 -34 32 -56 34 -54 6 1
-9 -3 -15 -10 -13 -6 2 -9 13 -8 23 2 10 4 29 4 41 0 20 4 22 27 16 14 -3 41
-14 60 -24 19 -10 44 -16 56 -13 13 3 27 -1 34 -10 8 -9 21 -16 30 -16 10 0
30 -13 46 -30 16 -16 32 -30 37 -30 17 0 7 22 -23 49 -24 23 -29 33 -23 54 7
30 -2 34 -26 12 -22 -20 -53 -9 -45 16 8 23 -8 25 -25 4 -17 -20 -32 -8 -20
16 8 15 7 19 -4 19 -9 0 -21 -10 -27 -22 -12 -22 -12 -22 -20 -3 -4 11 -8 31
-8 44 -1 21 2 23 31 17 25 -5 30 -4 20 6 -7 7 -12 20 -12 30 0 26 -15 22 -35
-8 -9 -14 -19 -23 -22 -21 -2 3 6 19 18 36 17 23 20 34 12 42 -8 8 -14 5 -22
-10 -7 -12 -20 -21 -30 -21 -23 0 -46 25 -31 35 18 11 12 38 -7 30 -33 -13
-48 -11 -45 8 3 15 -8 22 -30 18 -5 0 -8 5 -8 13 0 16 -27 29 -42 20 -5 -3
-12 4 -15 16 -4 15 -11 20 -24 17 -11 -3 -17 -1 -13 4 3 5 -4 9 -15 9 -11 0
-23 -4 -26 -10 -3 -5 -11 -10 -16 -10 -6 0 -8 4 -5 9 3 5 -10 19 -30 30 -35
21 -36 23 -18 36 23 17 56 19 103 5z m-2865 -22 c20 -28 21 -107 2 -152 -17
-42 -67 -61 -136 -53 -50 6 -141 45 -147 63 -5 15 69 86 118 114 41 22 41 22
29 1 -6 -12 -16 -18 -22 -15 -7 4 -8 2 -4 -5 6 -8 11 -9 20 -1 7 5 34 13 60
16 25 4 46 11 46 16 0 5 6 6 13 2 10 -6 10 -4 0 7 -7 7 -13 17 -13 21 0 16 19
8 34 -14z m9224 -50 c-22 -22 -22 -28 -3 -54 13 -19 12 -22 -10 -32 -31 -14
-32 -28 -3 -38 14 -4 25 -1 33 10 7 9 20 16 30 16 10 0 29 10 41 21 39 37 108
0 121 -63 4 -21 11 -28 29 -28 13 0 27 -6 31 -14 4 -7 23 -21 42 -31 33 -17
35 -17 48 1 13 17 11 20 -18 25 -17 4 -41 16 -52 28 -20 19 -20 21 -3 40 22
25 40 18 66 -24 13 -22 26 -32 36 -28 8 3 25 2 39 -1 21 -5 25 -12 25 -41 0
-30 -4 -35 -32 -43 -24 -7 -37 -5 -49 5 -14 12 -17 11 -21 -4 -11 -42 20 -55
76 -33 23 8 26 7 26 -11 0 -13 -4 -18 -12 -13 -8 5 -9 2 -4 -12 18 -42 13 -49
-34 -48 -25 0 -53 4 -62 8 -15 7 -18 3 -18 -26 0 -29 -5 -37 -35 -51 -44 -21
-49 -57 -9 -57 19 0 25 4 20 15 -7 19 35 65 60 65 11 1 30 7 44 15 40 23 52
19 48 -17 -3 -33 -8 -35 -40 -23 -29 11 -22 -24 7 -37 26 -12 29 -19 19 -55
-4 -16 -15 -22 -46 -25 -22 -2 -42 0 -44 4 -8 13 -24 9 -24 -6 0 -17 27 -28
51 -21 28 9 43 -4 27 -23 -11 -13 -10 -15 5 -9 10 4 17 2 17 -6 0 -28 -31
-115 -45 -127 -8 -7 -12 -17 -9 -22 16 -26 -61 -37 -113 -17 l-28 11 40 14
c22 7 42 14 44 14 2 0 2 2 -1 5 -2 3 -25 -2 -50 -11 l-45 -15 -214 106 c-118
58 -232 115 -254 127 -39 22 -39 22 -15 29 43 12 56 10 83 -15 14 -13 44 -34
66 -47 l40 -22 33 22 33 22 -30 -5 c-16 -2 -39 -6 -49 -8 -38 -6 -25 20 18 36
25 10 57 27 72 39 16 12 39 27 53 33 l26 11 -42 22 c-43 22 -47 20 -44 -19 2
-26 -12 -37 -76 -63 -51 -21 -64 -23 -73 -12 -8 10 -6 15 9 20 10 3 22 12 25
20 7 18 2 18 -40 3 -31 -11 -35 -10 -54 15 -23 29 -45 27 -37 -4 3 -11 0 -19
-6 -19 -6 0 -18 -7 -28 -16 -16 -14 -21 -13 -60 6 -32 17 -39 24 -28 32 10 7
8 8 -8 3 -14 -4 -37 1 -60 14 -21 11 -51 26 -68 32 l-30 12 55 11 c44 9 56 16
58 32 3 21 -14 45 -45 63 -15 8 -15 10 0 26 19 19 14 35 -11 36 -12 0 -13 2
-3 6 7 3 22 14 32 24 22 22 57 24 83 4 16 -12 22 -12 47 0 40 21 62 19 92 -9
15 -14 34 -26 43 -28 10 -2 21 -15 25 -30 6 -25 5 -28 -17 -28 -29 0 -42 -25
-26 -51 17 -27 16 -29 -27 -27 -34 1 -37 3 -25 15 17 17 18 35 4 49 -8 8 -6
15 5 24 25 20 18 32 -16 25 -24 -5 -36 -2 -54 15 -21 20 -26 21 -39 8 -11 -12
-12 -18 -3 -27 8 -8 7 -11 -4 -11 -9 0 -24 -9 -34 -20 -17 -19 -17 -21 -2 -38
24 -27 21 -39 -15 -59 -25 -12 -29 -18 -16 -21 9 -2 27 3 40 11 13 8 42 18 66
22 34 5 42 4 42 -9 0 -24 16 -27 63 -11 40 13 48 13 82 -1 34 -14 39 -14 55 1
18 17 66 32 128 42 18 3 35 9 38 14 3 5 16 9 30 9 13 0 24 3 24 6 0 13 -42 74
-50 74 -16 0 -21 -20 -10 -41 11 -20 10 -21 -36 -17 -43 3 -48 1 -53 -20 l-6
-23 -18 21 c-17 20 -16 21 7 30 28 10 40 26 31 40 -4 7 -11 8 -18 2 -7 -5 -25
-13 -42 -16 -23 -5 -37 -1 -60 20 -20 16 -26 27 -17 30 6 3 12 13 12 21 0 15
-20 14 -64 -3 -9 -3 -16 -1 -16 5 0 6 5 11 10 11 6 0 10 9 10 20 0 16 -5 19
-29 14 -20 -4 -30 -1 -34 9 -7 20 -47 11 -47 -10 0 -11 -6 -14 -22 -9 -13 3
-29 6 -36 6 -23 0 -9 44 18 57 26 13 107 17 134 7 9 -3 16 -15 16 -25 0 -15 7
-19 40 -19 27 0 42 -5 49 -18 5 -9 26 -23 46 -31 30 -11 42 -11 61 0 18 9 30
10 49 1 14 -7 35 -12 45 -12 14 0 21 -9 25 -37 8 -51 19 -69 41 -65 11 2 27
-7 39 -21 15 -20 30 -26 65 -28 53 -2 80 7 80 28 0 9 -7 13 -17 10 -66 -19
-89 -17 -112 7 -19 20 -20 24 -7 29 30 12 18 29 -14 22 -20 -4 -37 -2 -46 6
-14 12 -12 15 17 24 46 16 53 40 9 30 -29 -6 -32 -5 -26 10 4 12 -5 28 -30 51
-35 34 -54 37 -50 10 1 -8 8 -21 15 -30 8 -9 11 -19 8 -23 -4 -3 -16 6 -28 21
-24 31 -66 33 -61 4 4 -23 -40 -25 -62 -3 -8 8 -19 15 -25 15 -6 0 -9 10 -7
23 2 13 10 22 21 22 33 0 27 24 -9 46 -32 18 -35 24 -24 38 21 26 29 29 72 28
39 -2 40 -3 24 -19z m-728 -106 c0 -4 16 -14 35 -21 31 -11 40 -10 60 3 13 9
31 16 39 16 21 0 66 -58 66 -85 0 -13 5 -27 10 -30 18 -11 10 -25 -14 -25 -30
0 -52 26 -48 56 3 18 -1 24 -16 24 -11 0 -26 -7 -33 -16 -11 -14 -11 -21 3
-45 17 -29 17 -29 -7 -29 -13 0 -27 -5 -30 -10 -4 -6 -15 0 -27 15 -15 20 -18
29 -9 38 6 6 11 17 11 24 0 11 -6 11 -33 -1 -31 -12 -35 -12 -46 6 -17 28 -4
88 20 88 11 0 19 -4 19 -8z m-698 -71 c35 -15 97 -36 138 -46 102 -25 205 -60
244 -85 18 -11 52 -27 75 -35 23 -8 57 -25 74 -37 18 -13 81 -48 142 -79 60
-30 175 -89 255 -131 80 -42 156 -79 170 -83 14 -4 108 -48 210 -97 504 -244
502 -244 587 -254 17 -2 25 7 41 44 11 26 27 72 35 102 9 30 20 69 25 85 16
46 32 123 32 150 0 13 4 26 10 30 5 3 14 32 21 65 6 33 15 60 18 60 4 0 19 -6
34 -12 22 -11 27 -20 27 -51 0 -97 -69 -327 -143 -474 l-46 -91 -78 29 c-43
17 -152 66 -243 111 -91 44 -250 120 -355 169 -104 50 -278 133 -385 186 -107
53 -227 111 -267 129 -39 18 -91 45 -115 61 -24 15 -47 26 -52 25 -12 -4 -96
41 -96 50 0 4 -17 10 -37 14 -21 4 -49 12 -63 19 -14 7 -63 23 -110 35 -79 21
-128 43 -238 105 -44 24 -42 27 15 34 7 0 41 -12 75 -28z m-7747 -1 c17 -4 53
-18 80 -32 86 -43 207 -107 290 -153 44 -24 127 -68 185 -98 129 -67 255 -133
380 -201 52 -28 108 -55 125 -61 31 -10 48 -45 22 -45 -13 0 -129 59 -407 207
-47 25 -161 86 -255 135 -326 172 -521 281 -470 263 11 -4 34 -11 50 -15z
m4718 -114 c10 -8 15 -16 10 -19 -4 -3 -129 -28 -278 -57 -148 -28 -346 -67
-440 -85 -168 -33 -195 -33 -195 -1 0 6 52 21 123 34 67 12 205 38 307 58 102
19 210 39 240 44 30 6 84 16 120 24 83 18 91 18 113 2z m2948 -43 c37 -27 86
-53 101 -53 7 0 24 -6 38 -13 41 -21 62 -28 55 -17 -3 6 -2 10 3 10 23 0 111
-36 148 -60 22 -15 68 -35 102 -45 37 -11 62 -24 62 -32 0 -8 -5 -11 -11 -7
-8 4 -8 1 0 -14 12 -22 144 -90 219 -114 23 -7 42 -16 42 -20 0 -5 9 -8 20 -8
58 0 397 -145 567 -242 56 -32 107 -58 113 -58 6 0 8 -5 4 -12 -5 -7 -3 -8 6
-3 7 4 15 3 19 -2 10 -16 204 -122 272 -148 89 -36 136 -44 192 -36 26 4 47 6
47 4 0 -20 -36 -64 -56 -69 -63 -16 -237 61 -532 234 -95 56 -175 102 -177
102 -2 0 -47 20 -99 44 -52 24 -157 66 -233 92 -218 74 -284 99 -396 148 -58
25 -109 46 -113 46 -24 0 -419 208 -460 242 -31 26 -41 38 -26 34 13 -5 22 -3
22 3 0 17 45 13 71 -6z m-2932 -123 c-15 -9 -296 -68 -344 -73 -16 -2 -37 -6
-45 -9 -8 -3 -98 -24 -200 -46 l-185 -39 -22 20 c-13 11 -21 22 -20 24 2 2 24
6 48 9 66 8 131 20 264 49 66 14 156 32 200 40 44 8 121 23 170 33 65 13 98
16 119 9 20 -7 25 -12 15 -17z m944 -33 c10 -15 34 -29 64 -37 26 -7 82 -26
123 -42 41 -15 90 -30 108 -32 51 -6 81 35 47 64 -8 7 -15 26 -15 42 l0 29 48
-49 c76 -80 74 -80 270 -78 l174 2 34 37 c33 35 67 47 78 29 3 -5 -8 -22 -24
-37 -30 -28 -40 -65 -19 -65 6 0 20 11 30 24 10 13 37 28 59 34 l41 10 -55
-58 c-60 -63 -67 -79 -36 -81 11 -1 24 -2 30 -3 5 -1 42 26 82 60 108 90 127
97 142 47 11 -34 -25 -105 -84 -167 l-51 -54 -66 30 c-79 35 -89 29 -74 -53 3
-19 185 -86 253 -93 43 -5 142 -36 175 -55 13 -7 -56 -10 -234 -11 l-252 0
-28 -42 c-35 -52 -71 -60 -132 -29 -53 27 -86 26 -140 -4 -23 -14 -55 -25 -70
-25 -36 0 -81 30 -111 72 l-24 36 -141 6 c-77 4 -210 10 -295 14 l-155 7 72
23 c39 12 91 22 116 22 69 0 198 20 228 35 17 9 29 25 33 46 8 44 -4 54 -48
39 -40 -13 -33 -16 -119 55 -57 46 -73 71 -53 78 7 3 40 -17 72 -44 57 -47 95
-62 93 -36 0 6 -32 37 -70 67 -65 51 -100 99 -147 203 -2 4 10 7 26 7 20 0 35
-8 45 -23z m-2318 -68 c4 -6 5 -12 3 -14 -4 -4 -495 -100 -718 -141 -74 -13
-145 -27 -157 -29 -35 -8 -28 18 10 37 29 14 314 68 442 84 72 9 197 32 290
53 96 22 122 24 130 10z m1012 -102 c5 -169 40 -288 109 -373 24 -29 44 -56
44 -58 0 -2 -31 -29 -69 -60 -38 -31 -96 -91 -128 -134 -70 -90 -85 -116 -78
-134 3 -8 -1 -50 -10 -93 -8 -44 -15 -98 -15 -120 0 -29 -5 -44 -19 -52 -38
-24 -70 -94 -75 -165 -6 -75 2 -116 15 -82 7 17 8 17 8 1 1 -10 5 -15 11 -12
30 18 -36 -159 -79 -215 -15 -19 -38 -57 -51 -85 -32 -69 -90 -146 -102 -138
-7 3 -8 1 -4 -5 9 -15 -64 -103 -77 -95 -6 3 -7 1 -3 -6 4 -6 -2 -23 -13 -36
-13 -17 -22 -22 -26 -14 -8 12 -25 -6 -25 -26 0 -5 5 -3 10 5 8 13 10 13 10
-1 0 -9 -6 -22 -14 -28 -11 -9 -15 -6 -20 15 -6 21 -10 24 -21 14 -8 -6 -18
-9 -23 -6 -22 13 -71 -87 -58 -119 4 -12 -4 -15 -37 -15 -23 0 -60 5 -82 10
-44 11 -346 63 -490 85 -49 8 -205 19 -345 24 -140 6 -272 16 -292 23 -46 14
-47 29 -19 158 25 112 54 195 107 308 47 100 73 141 90 135 5 -2 20 6 32 17
11 11 26 20 31 20 5 0 17 7 26 16 8 9 27 17 40 18 18 1 25 7 25 21 0 16 -2 17
-10 5 -5 -8 -12 -11 -16 -7 -4 4 0 15 9 25 10 10 17 24 17 31 0 7 5 9 10 6 6
-3 10 -1 10 4 0 6 6 11 13 11 7 0 21 20 32 45 11 24 30 49 43 54 12 6 22 19
22 30 0 11 4 22 9 26 5 3 12 19 16 35 4 17 8 30 11 30 2 0 23 -14 46 -30 88
-62 696 -334 723 -324 5 3 32 52 60 111 27 58 73 146 102 195 129 217 236 430
430 861 42 92 79 167 82 167 3 0 7 -33 8 -73z m-2006 23 c5 0 9 -10 9 -22 0
-19 -2 -20 -10 -8 -7 11 -10 3 -10 -28 0 -24 4 -41 9 -38 5 3 11 -3 14 -14 3
-12 1 -18 -5 -14 -6 4 -6 -2 1 -14 6 -11 11 -29 11 -40 0 -11 31 -52 69 -92
63 -66 71 -72 97 -66 16 4 31 12 32 17 2 5 10 9 17 9 9 0 -44 -117 -140 -308
l-153 -309 -30 5 c-46 6 -85 -21 -205 -143 -110 -111 -113 -113 -187 -135
-146 -42 -198 -61 -254 -95 -48 -28 -56 -31 -56 -16 0 36 22 78 47 92 42 23
106 131 97 166 -6 24 159 337 180 341 9 2 16 10 16 18 0 8 -4 12 -10 9 -6 -3
-7 1 -4 9 8 21 24 20 25 -1 0 -14 2 -15 6 -3 4 8 12 20 19 27 7 7 32 48 55 91
24 42 46 79 51 80 8 3 19 23 77 131 8 14 19 29 24 33 11 7 41 59 53 91 3 9 13
17 20 17 8 0 14 9 14 19 0 14 5 18 20 14 21 -6 27 6 11 23 -12 11 -2 66 10 58
5 -3 9 6 9 19 0 13 8 35 18 48 10 13 22 33 27 44 7 18 9 18 12 3 3 -10 9 -18
14 -18z m5609 25 c0 -2 -14 -11 -30 -20 -36 -19 -104 -32 -225 -45 -49 -6
-151 -16 -225 -24 -149 -16 -283 -43 -405 -81 -104 -32 -117 -31 -75 4 69 59
219 99 471 126 74 8 181 19 239 26 57 6 128 9 157 6 29 -3 55 -1 58 4 6 9 35
13 35 4z m-4223 -47 c94 11 155 4 131 -15 -57 -48 -324 -44 -343 5 -10 26 5
29 67 15 49 -11 81 -12 145 -5z m241 -70 c9 0 22 -1 29 -1 18 1 -5 -50 -32
-70 -22 -15 -25 -16 -25 -2 0 8 -4 15 -10 15 -5 0 -10 -9 -10 -20 0 -11 -8
-23 -17 -27 -10 -3 -26 -13 -36 -21 -16 -15 -18 -14 -24 6 -6 25 -23 20 -23
-7 0 -22 -68 -57 -83 -42 -7 7 -6 16 5 28 26 31 31 43 14 37 -11 -4 -16 0 -16
15 0 12 0 24 -1 29 0 4 8 9 18 12 10 3 31 13 46 24 37 25 48 11 14 -20 -15
-14 -27 -26 -27 -28 0 -4 70 16 113 33 24 9 27 16 28 58 1 47 1 47 10 16 6
-20 17 -34 27 -35z m-478 22 c0 -9 -21 -14 -280 -65 -102 -20 -212 -42 -245
-50 -33 -8 -78 -17 -100 -20 -22 -4 -100 -20 -174 -37 l-134 -30 -26 26 c-24
24 -24 26 -6 27 11 1 26 1 33 0 17 -3 442 81 627 124 66 15 160 33 189 37 34
5 116 -4 116 -12z m3357 -70 c21 5 48 11 61 14 16 4 22 0 22 -13 0 -24 -30
-110 -41 -116 -5 -3 -43 10 -86 30 l-77 35 34 35 c26 27 36 32 42 21 6 -10 17
-11 45 -6z m-4763 -22 c-8 -15 -19 -28 -25 -28 -6 0 -8 -4 -5 -9 3 -5 -45
-112 -108 -238 -62 -125 -153 -309 -202 -408 -70 -141 -90 -174 -92 -153 -2
19 36 106 126 285 174 348 241 474 260 497 10 10 16 21 15 25 -5 12 8 41 18
41 6 0 8 4 5 8 -3 5 1 9 9 9 12 0 12 -5 -1 -29z m1306 -8 c0 -17 -7 -33 -17
-39 -17 -10 -17 -10 0 -11 11 0 30 9 44 20 42 33 58 26 54 -22 -3 -28 15 -29
53 -3 33 23 36 23 36 6 0 -11 -6 -21 -12 -24 -7 -3 0 -10 17 -16 22 -9 35 -9
50 -1 11 6 28 12 38 14 9 1 20 5 23 9 4 4 16 7 26 7 15 0 17 -5 12 -25 -5 -22
-2 -27 24 -36 28 -10 29 -12 18 -42 -6 -18 -15 -35 -21 -39 -25 -18 8 -17 56
2 86 32 96 28 58 -25 -18 -25 -39 -45 -47 -45 -22 0 -233 85 -327 132 -103 50
-206 118 -199 129 8 14 25 11 46 -8 17 -15 18 -15 18 9 0 29 7 38 32 38 13 0
18 -8 18 -30z m5169 -140 c14 -11 49 -24 76 -31 28 -6 66 -15 84 -20 46 -11
50 -4 11 16 l-33 17 24 22 c19 19 28 21 47 13 25 -12 26 -15 12 -53 -10 -24
-9 -26 6 -13 9 7 20 22 24 34 7 18 9 19 15 2 5 -11 1 -25 -11 -38 -35 -38
-180 -130 -214 -134 -32 -5 -38 -2 -71 42 -41 54 -93 142 -88 147 36 29 73 28
118 -4z m-4027 -39 c21 -23 40 -41 43 -41 11 2 85 -57 80 -62 -3 -3 4 -5 16
-4 16 1 23 8 24 24 2 33 43 58 46 30 3 -27 -3 -44 -24 -66 -21 -22 -21 -23 -1
-41 10 -10 30 -22 44 -26 19 -5 21 -4 10 4 -10 7 -11 11 -2 11 6 0 12 9 12 21
0 17 5 19 30 15 17 -2 28 0 25 5 -3 4 1 20 10 33 13 19 21 23 33 16 10 -5 30
-12 46 -15 l29 -6 -45 -44 c-44 -42 -88 -115 -88 -146 0 -9 -3 -18 -6 -22 -3
-3 -54 40 -112 96 -225 217 -257 251 -247 267 9 14 34 -2 77 -49z m-1260 -45
c4 -6 10 -7 14 -3 4 4 12 2 19 -3 6 -5 40 -21 76 -34 35 -14 114 -46 174 -71
61 -26 122 -51 137 -57 27 -10 43 -33 29 -43 -15 -9 -286 93 -406 152 -58 29
-179 108 -196 129 -6 7 24 -3 67 -22 44 -20 82 -42 86 -48z m3361 -47 c56 -1
113 -4 126 -8 17 -4 35 -28 60 -76 20 -39 48 -86 62 -105 37 -50 81 -130 72
-130 -4 0 -111 65 -238 144 -198 125 -232 143 -242 129 -6 -8 -16 -12 -22 -8
-7 4 1 21 21 44 27 33 34 36 46 25 9 -10 43 -14 115 -15z m-648 -14 c14 -13
25 -31 25 -39 0 -20 43 -31 68 -17 12 6 33 11 49 11 16 0 45 11 65 25 42 29
70 32 88 10 7 -8 23 -15 36 -15 22 0 74 -19 84 -31 12 -13 44 -18 56 -8 16 13
35 3 28 -14 -6 -16 21 -42 59 -56 26 -10 27 -10 17 10 -10 18 -9 19 7 11 11
-6 23 -32 31 -67 8 -31 35 -123 62 -203 27 -81 47 -148 46 -150 -2 -1 -64 29
-139 68 l-135 71 -17 97 c-10 53 -23 126 -29 161 -12 63 -30 88 -42 57 -3 -8
6 -78 20 -155 31 -168 32 -231 6 -288 -29 -66 -62 -93 -110 -93 -87 0 -151 55
-149 130 0 19 3 29 6 21 9 -24 56 -60 87 -67 15 -3 55 0 87 7 53 12 58 15 52
34 -3 11 -5 27 -3 35 2 8 4 78 4 155 1 158 -10 204 -54 235 -70 50 -132 3
-164 -125 -3 -16 2 76 8 120 0 6 -8 10 -19 10 -18 0 -22 -14 -40 -143 l-20
-143 -85 -47 c-47 -26 -115 -64 -153 -85 l-67 -37 16 33 c9 17 33 50 54 72 41
43 101 154 104 191 0 12 4 20 9 17 4 -2 10 9 13 26 4 18 11 28 17 24 6 -3 7
-1 3 6 -4 6 -2 19 5 27 16 20 4 30 -17 13 -15 -12 -15 -10 0 26 13 31 14 40 4
47 -22 13 -24 10 -62 -72 -20 -45 -42 -83 -49 -85 -7 -2 -90 -31 -185 -64 -95
-34 -177 -61 -183 -61 -18 0 72 98 95 104 13 3 39 27 59 52 20 26 63 74 94
108 50 51 65 61 103 67 96 14 129 10 155 -16z m1350 4 c11 -5 27 -13 35 -18 8
-4 40 -20 70 -35 102 -48 234 -129 283 -173 20 -18 42 -33 47 -33 6 0 10 -5
10 -11 0 -6 14 -31 32 -57 30 -44 38 -79 26 -125 -7 -29 -59 -57 -105 -57 -31
0 -43 -4 -43 -15 0 -9 6 -12 15 -9 9 4 15 0 15 -7 1 -14 110 -99 127 -99 12 0
110 -96 123 -121 9 -16 5 -15 -27 7 -21 14 -68 41 -104 59 -36 19 -90 48 -120
66 -84 49 -410 216 -469 239 -29 12 -85 40 -124 63 -41 24 -83 42 -101 42 -20
0 -30 5 -30 15 0 10 10 15 32 15 17 1 29 -3 27 -7 -5 -7 22 -12 29 -6 1 2 16
-7 33 -19 46 -33 144 -49 144 -25 0 4 -12 23 -28 42 -15 19 -39 52 -52 72 -14
20 -35 42 -48 48 -13 5 -32 31 -43 56 l-21 46 22 23 c12 12 29 21 38 19 9 -2
37 2 62 10 44 14 104 12 145 -5z m1635 -3 c0 -8 -124 -88 -220 -141 -58 -32
-108 -63 -111 -68 -11 -16 -19 24 -9 43 11 20 69 57 105 66 14 3 23 9 20 13
-2 4 12 13 32 20 19 7 54 26 77 42 24 17 54 28 74 29 17 0 32 -2 32 -4z m354
-137 c45 -21 38 -41 -36 -105 -81 -69 -179 -129 -335 -204 -132 -63 -141 -62
-197 22 -20 29 -36 56 -36 59 0 9 103 -2 118 -13 6 -6 12 -25 12 -42 0 -17 4
-26 8 -20 4 6 17 14 29 18 22 7 41 42 29 54 -3 3 -12 -3 -19 -13 -13 -17 -16
-15 -50 19 -21 20 -37 43 -37 51 0 23 -16 18 -28 -10 -15 -33 -30 -32 -34 2
-4 36 -28 43 -28 8 0 -34 -16 -24 -30 21 -10 31 -10 37 6 48 23 17 75 5 121
-27 20 -14 42 -23 49 -20 16 6 19 49 4 58 -5 3 -10 -3 -10 -14 0 -11 -4 -22
-9 -25 -10 -6 -21 41 -21 88 1 27 2 29 13 15 13 -18 85 -42 98 -33 11 6 117
-25 124 -37 15 -23 31 -8 27 26 -5 40 -4 40 34 20 16 -8 36 -15 44 -15 9 0 25
-7 36 -15 16 -11 29 -12 57 -4 46 12 50 20 38 64 -11 39 -11 39 23 24z m-3029
-21 c9 -9 19 -119 20 -208 l0 -74 -35 -7 c-97 -20 -124 19 -118 171 4 118 11
129 78 126 27 -1 52 -4 55 -8z m-2980 -35 c-3 -21 -13 -49 -22 -61 -8 -13 -12
-26 -10 -29 3 -3 18 14 33 37 23 35 32 41 58 38 29 -3 31 -5 28 -43 -2 -36 -1
-38 12 -22 8 10 20 15 30 11 9 -3 27 1 41 10 22 15 26 15 31 1 3 -8 1 -29 -5
-46 -14 -41 -7 -47 28 -26 36 21 51 22 51 2 0 -8 5 -15 10 -15 6 0 10 12 10
26 0 25 -2 26 -40 20 -41 -6 -56 7 -21 19 10 3 31 17 45 30 28 26 51 31 75 16
10 -7 4 -27 -33 -97 -25 -49 -56 -102 -69 -118 l-23 -29 -55 16 c-30 9 -72 26
-94 37 -22 12 -100 48 -172 81 -168 74 -232 114 -233 141 0 16 70 20 94 5 13
-9 33 -13 45 -10 25 6 29 -12 4 -21 -15 -6 -12 -11 16 -28 l34 -22 19 27 c25
34 48 35 48 3 0 -14 5 -28 10 -31 13 -8 13 28 -1 59 -17 36 -5 56 32 56 31 0
31 -1 24 -37z m-363 -235 c7 -7 19 -14 25 -15 11 -2 314 -147 408 -194 62 -32
215 -89 237 -89 29 0 49 -25 40 -48 -7 -19 -14 -17 -137 33 -296 119 -589 271
-603 313 -5 16 13 16 30 0z m6443 -17 c6 -11 -91 -90 -225 -183 -83 -58 -257
-151 -415 -222 l-50 -23 -1 28 c-1 16 3 26 7 23 5 -3 9 0 9 5 0 6 6 11 13 11
13 0 51 18 120 58 21 12 44 19 50 16 7 -4 9 -3 4 1 -4 5 26 22 65 39 40 16 79
37 86 45 8 9 11 11 7 4 -3 -7 20 6 52 28 32 22 69 47 83 57 14 9 27 19 30 23
9 10 144 99 152 99 4 0 9 -4 13 -9z m122 -116 c252 -206 307 -267 373 -409 53
-115 68 -163 96 -310 36 -190 46 -172 -98 -169 -123 3 -320 -19 -613 -68 -292
-48 -354 -58 -426 -63 l-76 -5 -55 62 c-30 34 -60 77 -66 95 -24 70 -206 265
-261 279 -15 4 -36 0 -52 -10 -24 -13 -29 -14 -40 -1 -14 18 -17 15 51 49 30
15 78 42 105 59 28 17 76 44 109 60 32 15 83 43 112 62 30 19 138 76 241 127
177 87 261 140 428 264 38 29 74 52 78 50 4 -1 47 -34 94 -72z m-4150 -75 c30
-17 73 -44 95 -61 23 -16 47 -29 54 -29 7 0 14 -3 16 -8 3 -8 164 -82 179 -82
5 0 57 -18 116 -41 60 -23 133 -50 163 -61 30 -11 66 -25 80 -30 52 -22 66
-27 90 -34 14 -4 59 -23 100 -42 76 -36 228 -102 233 -101 1 0 11 -3 22 -6 37
-13 50 -16 50 -15 0 5 156 -87 195 -114 25 -18 60 -38 78 -45 18 -8 31 -15 29
-17 -3 -4 -129 40 -227 80 -36 14 -132 50 -215 80 -82 30 -184 68 -225 85 -41
17 -149 60 -240 95 -283 111 -417 177 -563 277 -105 71 -146 111 -106 104 12
-2 46 -18 76 -35z m-4 -188 c20 -2 55 2 77 8 46 12 67 6 49 -16 -7 -9 -20 -12
-36 -8 -23 6 -24 5 -15 -13 8 -15 18 -19 42 -15 19 3 37 -1 48 -11 9 -8 27
-18 40 -21 38 -12 26 23 -14 40 -20 8 -34 17 -31 20 2 3 30 -7 61 -23 37 -18
56 -33 56 -45 0 -19 37 -39 68 -36 56 4 58 -2 13 -41 -28 -25 -50 -37 -62 -34
-20 6 -27 23 -9 23 6 0 10 7 10 15 0 19 -20 19 -46 0 -17 -11 -27 -12 -52 -3
-26 10 -30 16 -26 35 7 27 -7 30 -41 7 -27 -18 -25 -34 5 -34 11 0 24 -9 30
-20 8 -16 21 -20 60 -20 39 0 52 -4 60 -20 9 -17 17 -19 48 -14 31 5 40 2 58
-19 22 -25 64 -31 71 -10 2 6 -6 14 -18 18 -13 4 -35 15 -50 24 l-28 17 29 32
29 32 41 -16 c32 -13 39 -20 35 -35 -5 -14 0 -20 22 -25 15 -4 34 -11 41 -17
9 -7 20 -6 36 3 18 9 29 9 42 1 18 -10 18 -10 -3 -11 -35 0 -53 -11 -53 -32 0
-15 -4 -18 -22 -12 -13 3 -19 3 -15 -2 5 -5 27 -10 50 -10 53 -2 123 -18 140
-32 7 -6 32 -14 55 -18 68 -11 50 12 -33 43 -41 15 -75 31 -75 36 0 15 52 6
130 -25 67 -26 78 -33 61 -40 -12 -4 -21 -14 -21 -23 0 -13 10 -15 64 -9 36 4
71 2 81 -3 27 -15 -61 -63 -116 -63 -38 0 -41 1 -24 13 21 16 12 39 -13 30 -9
-3 -31 -16 -48 -29 -28 -20 -35 -22 -75 -12 -24 6 -46 12 -48 14 -2 2 10 14
25 28 31 27 26 31 -23 17 -26 -7 -31 -7 -26 5 3 9 -1 14 -11 14 -21 0 -94 -36
-121 -60 -14 -12 -27 -15 -45 -9 -25 7 -25 7 -3 14 24 8 38 34 26 46 -5 5 -26
15 -48 22 -22 8 -40 20 -40 28 0 9 -10 13 -29 12 -35 -2 -59 -22 -51 -41 4
-10 0 -12 -12 -8 -9 4 -38 9 -63 12 l-45 6 60 -36 c33 -19 65 -36 71 -36 6 0
17 -6 24 -14 6 -8 25 -16 42 -18 46 -4 45 -24 -1 -48 -28 -14 -41 -27 -41 -41
0 -18 -4 -20 -32 -14 -35 8 -70 24 -52 25 6 0 24 11 40 25 l29 25 -51 -6 c-31
-4 -59 -2 -70 4 -15 9 -16 11 -3 12 8 0 26 12 40 26 l24 26 -27 -6 c-16 -3
-38 -8 -51 -11 -12 -2 -45 6 -72 20 -28 13 -51 22 -54 20 -2 -2 6 -16 18 -31
27 -34 26 -38 -4 -52 -30 -14 -75 -16 -75 -4 0 5 -12 14 -26 20 -30 14 -26 42
13 83 14 15 20 29 15 33 -12 7 -71 -51 -86 -86 -11 -26 -12 -26 -35 -9 -21 16
-22 22 -16 74 7 55 8 56 36 53 37 -4 38 15 3 43 -27 21 -26 29 9 69 21 23 11
32 -12 10 -10 -11 -11 -4 -5 32 8 55 9 56 29 36 10 -10 33 -16 61 -16 30 0 46
-5 50 -15 4 -8 14 -15 23 -15 13 1 12 4 -6 19 -16 13 -19 21 -11 29 19 19 -1
26 -37 13 -42 -15 -75 1 -75 37 0 13 -4 20 -10 17 -11 -7 -13 6 -4 30 4 9 10
13 13 8 3 -5 23 -10 44 -11z m-3528 -24 c-10 -45 -28 -72 -113 -166 -41 -44
-105 -122 -144 -174 -39 -51 -90 -116 -114 -144 -24 -28 -50 -65 -57 -83 l-14
-32 -35 36 c-34 36 -57 102 -40 115 13 8 47 60 82 125 93 169 181 251 326 306
47 18 87 36 90 40 13 22 25 7 19 -23z m-65 -199 c-38 -96 -100 -211 -173 -321
-76 -116 -78 -117 -149 -95 l-37 12 37 50 c28 39 37 46 40 32 4 -18 5 -18 23
-1 10 9 19 23 19 30 0 7 4 14 9 16 4 2 12 14 16 28 7 23 7 23 -20 -5 l-27 -30
27 37 c18 25 32 35 43 31 12 -3 13 -2 4 4 -9 7 2 29 47 89 67 90 151 187 158
181 2 -3 -6 -29 -17 -58z m5220 -71 c33 -18 58 -37 56 -43 -4 -11 -2 -12 -80
16 -62 21 -100 19 -110 -6 -9 -25 3 -43 56 -81 27 -20 47 -38 44 -41 -2 -2
-30 6 -62 19 -48 19 -61 30 -80 66 -21 39 -22 47 -10 75 22 56 79 54 186 -5z
m-535 -94 c13 -5 10 -10 -14 -25 -38 -23 -41 -49 -6 -49 26 0 157 -34 175 -45
18 -11 10 -24 -30 -50 -53 -33 -84 -32 -118 5 -19 22 -31 27 -41 21 -12 -8
-12 -12 -2 -25 18 -21 1 -21 -44 1 -26 13 -34 21 -29 35 4 12 0 18 -11 18 -28
0 -55 -20 -55 -40 0 -13 -5 -18 -15 -14 -8 4 -13 10 -10 14 7 12 -51 70 -70
70 -8 0 -15 -7 -15 -15 0 -8 -4 -15 -10 -15 -5 0 -10 -4 -10 -10 0 -5 9 -10
20 -10 11 0 20 -4 20 -10 0 -5 -5 -10 -11 -10 -18 0 -79 32 -75 39 3 4 2 12
-2 18 -10 15 -52 -3 -52 -22 0 -8 -9 -15 -20 -15 -14 0 -87 15 -116 25 -1 0
-5 15 -9 33 -6 30 -5 32 21 32 15 0 42 5 60 12 27 10 36 9 56 -5 73 -53 66
-51 106 -35 49 19 157 12 192 -13 29 -21 100 -36 100 -22 0 11 -50 38 -95 51
l-29 8 44 27 c46 27 66 32 95 21z m1085 -60 c0 -20 3 -24 13 -16 7 6 23 12 37
14 30 3 180 -30 180 -41 0 -4 10 -8 23 -8 53 -4 68 -13 63 -36 -3 -12 -3 -16
0 -9 3 6 10 12 15 12 15 0 10 -32 -6 -44 -9 -6 -17 -25 -18 -41 -2 -28 -5 -30
-40 -27 -24 2 -37 -1 -37 -8 0 -9 -4 -9 -16 1 -11 9 -18 9 -22 2 -4 -6 -18 -9
-32 -8 -14 1 -37 3 -52 4 -18 1 -28 7 -28 16 0 10 -10 15 -30 15 -29 0 -36 5
-85 65 -21 25 -26 28 -35 15 -9 -12 -10 -9 -5 10 4 14 11 29 16 35 5 5 9 17 9
27 0 10 5 18 10 18 6 0 10 7 10 15 0 8 7 15 15 15 10 0 15 -10 15 -26z m-2197
-16 c20 -10 23 -34 5 -41 -7 -2 -10 -8 -6 -12 5 -5 17 0 28 10 24 22 101 16
130 -10 15 -14 30 -17 67 -12 33 4 54 1 67 -9 12 -8 43 -14 77 -14 41 0 68 -6
93 -21 30 -17 45 -20 87 -14 40 6 54 4 70 -11 23 -21 24 -34 3 -34 -9 0 -23
-8 -31 -17 -14 -17 -14 -17 -9 0 8 24 -19 33 -39 14 -23 -24 -18 -37 14 -37
17 0 50 -11 75 -24 50 -26 80 -25 99 5 14 23 50 25 67 4 17 -21 0 -58 -37 -81
-15 -9 -40 -25 -54 -35 l-26 -17 2 28 c1 16 -3 31 -10 33 -12 5 -77 -51 -113
-97 -12 -16 -22 -23 -22 -15 0 7 23 37 52 66 42 43 50 55 39 65 -10 11 -20 4
-54 -32 -23 -25 -52 -58 -64 -73 -26 -33 -43 -28 -43 14 0 16 -4 29 -8 29 -4
0 -25 -18 -47 -40 -28 -29 -42 -37 -51 -29 -10 8 -9 14 6 29 11 11 17 26 14
35 -6 14 -8 14 -24 0 -26 -23 -50 -19 -50 9 0 31 -25 53 -34 30 -13 -33 -109
13 -104 50 4 27 59 34 93 12 14 -9 37 -16 53 -16 16 0 37 -9 47 -20 14 -15 26
-19 46 -15 22 5 31 2 41 -14 7 -12 22 -21 33 -21 12 0 26 -5 32 -11 8 -8 14
-6 22 9 9 18 7 24 -18 41 -16 12 -34 21 -39 21 -22 0 -23 22 -3 56 33 55 15
58 -32 6 -23 -26 -42 -48 -43 -50 -1 -2 -12 2 -24 8 -21 11 -21 12 16 45 21
19 35 37 32 40 -7 7 -94 -40 -104 -56 -7 -12 -54 -11 -54 1 0 6 5 10 10 10 6
0 10 12 10 26 0 26 -1 26 -22 10 -13 -9 -29 -19 -36 -22 -17 -9 -72 44 -72 69
0 14 -5 18 -18 15 -11 -3 -23 2 -30 12 -6 9 -20 20 -31 23 -18 4 -20 2 -15
-21 9 -34 9 -34 47 -47 24 -7 35 -19 43 -45 7 -19 8 -37 4 -40 -4 -3 -36 -3
-70 -2 -56 4 -60 5 -47 20 8 10 18 28 22 40 6 21 5 22 -12 14 -10 -6 -28 -20
-41 -32 l-23 -21 -44 26 c-67 39 -73 57 -30 99 32 32 41 46 32 46 -2 0 -14 -9
-27 -20 -13 -11 -25 -18 -28 -16 -2 3 -1 26 2 51 l7 45 42 -6 c23 -4 50 -11
60 -16z m-1282 -132 c11 -76 33 -120 87 -178 l36 -38 -23 -132 c-48 -274 -60
-363 -67 -480 l-7 -121 -116 6 c-64 4 -141 13 -171 22 -76 20 -94 19 -129 -11
-48 -40 -42 -71 25 -141 31 -32 77 -87 102 -122 l46 -64 -41 -126 c-49 -150
-63 -227 -63 -346 0 -97 13 -125 57 -125 21 0 23 -4 23 -54 0 -50 -3 -56 -44
-97 -41 -41 -44 -49 -51 -112 -4 -38 -5 -86 -2 -108 5 -37 4 -39 -21 -39 -44
0 -102 20 -102 35 0 23 -50 74 -108 111 -30 20 -83 65 -117 100 l-62 65 38 20
c21 10 45 32 54 49 19 37 19 104 0 133 -14 21 -12 28 23 87 52 89 77 144 114
252 28 82 32 106 33 200 0 103 -1 108 -28 136 -25 26 -27 32 -16 55 7 16 23
28 39 32 16 3 51 30 78 59 54 57 72 110 52 160 -9 25 -7 32 19 62 33 37 48
101 37 159 -6 30 0 45 56 132 35 54 69 114 76 134 20 58 15 113 -12 146 l-24
28 42 56 c22 30 66 88 96 129 l55 74 3 -40 c1 -21 7 -70 13 -108z m2617 50
c15 -8 46 -17 67 -21 22 -4 52 -15 67 -26 31 -21 63 -24 104 -8 33 12 66 6 88
-17 26 -25 19 -33 -21 -23 -56 13 -68 12 -54 -5 6 -8 31 -17 55 -20 39 -6 44
-10 50 -37 3 -17 1 -40 -5 -51 -8 -15 -7 -24 4 -36 23 -26 23 -45 2 -69 -27
-32 -51 -30 -50 3 0 22 -7 29 -35 39 -33 11 -34 12 -11 19 14 5 19 12 14 17
-6 6 -20 6 -37 -1 -35 -13 -61 -13 -109 1 -38 10 -38 11 -21 30 25 27 -5 26
-34 -2 -26 -24 -21 -39 13 -39 54 0 98 -39 60 -54 -8 -3 -15 -10 -15 -16 0 -5
7 -10 15 -10 8 0 15 5 15 10 0 17 52 32 87 25 46 -8 41 -23 -9 -27 -42 -3 -42
-4 -13 -11 78 -21 80 -37 6 -69 -76 -33 -135 -24 -79 11 l22 14 -24 10 c-14 5
-45 13 -70 16 -36 5 -44 10 -42 24 4 23 -15 22 -28 -2 -14 -27 -13 -34 6 -27
8 3 26 -1 39 -10 l25 -16 -20 -26 c-13 -16 -17 -29 -11 -35 11 -11 34 0 26 13
-3 4 1 13 9 19 21 18 80 -45 82 -87 1 -37 -5 -43 -56 -52 -29 -6 -32 -8 -16
-15 11 -5 37 -4 60 3 36 9 46 8 94 -18 29 -15 49 -31 43 -34 -6 -4 -36 -11
-68 -16 -32 -6 -61 -16 -65 -24 -8 -14 -13 -13 -43 1 -28 13 -34 21 -29 37 7
21 6 21 -15 2 -11 -11 -21 -26 -21 -34 0 -10 -8 -13 -27 -9 l-27 5 24 -18 c14
-10 45 -21 70 -23 25 -3 61 -9 80 -12 33 -7 34 -6 15 9 -20 15 -20 15 3 16 12
0 25 7 28 15 6 14 37 26 106 40 21 4 26 9 21 23 -4 9 -11 21 -17 25 -6 5 10 6
37 2 39 -5 47 -3 47 9 0 12 -10 16 -39 16 -56 0 -60 17 -9 39 51 22 52 21 67
-78 12 -77 10 -91 -11 -73 -7 5 -31 14 -53 18 -35 6 -38 5 -27 -8 7 -9 30 -18
51 -22 68 -11 95 -58 44 -76 -16 -6 -35 -14 -44 -19 -9 -5 -22 -5 -30 0 -8 5
-27 9 -44 8 l-30 0 22 -16 23 -15 -26 -20 c-20 -16 -33 -19 -69 -13 -44 6 -58
19 -32 28 6 2 9 8 5 12 -9 10 -64 -18 -58 -30 3 -6 10 -10 15 -10 6 0 20 -8
33 -16 22 -16 22 -16 -36 -38 -33 -11 -71 -21 -86 -21 -24 0 -26 2 -16 21 15
27 9 32 -18 13 -12 -8 -22 -24 -22 -35 0 -14 -7 -19 -30 -19 -16 0 -30 5 -30
10 0 6 5 10 10 10 20 0 9 31 -15 42 -25 11 -34 28 -15 28 6 0 10 5 10 10 0 14
-33 12 -54 -3 -17 -12 -16 -14 7 -24 13 -6 27 -21 30 -32 7 -27 -23 -36 -68
-20 -29 11 -34 16 -29 36 7 26 -7 30 -26 8 -14 -17 -20 -18 -40 -5 -12 7 -12
12 4 29 30 33 14 43 -27 16 -38 -26 -48 -45 -24 -45 8 0 22 -9 32 -20 10 -12
31 -20 48 -20 17 0 39 -8 50 -17 15 -14 38 -18 101 -19 44 0 98 -6 119 -13 39
-13 63 -7 37 9 -11 7 -8 10 13 10 17 0 27 -5 27 -14 0 -8 6 -16 13 -19 15 -5
37 3 37 14 0 4 -7 6 -16 2 -12 -4 -15 -1 -13 12 7 33 53 36 99 7 22 -15 40
-29 40 -33 0 -10 -61 -23 -92 -20 -16 1 -28 -2 -28 -8 0 -14 36 -23 63 -16 22
7 108 45 117 52 9 8 -26 23 -55 23 l-30 0 25 21 25 21 -30 -5 c-16 -3 -43 -3
-58 0 -30 6 -33 4 83 72 25 15 123 41 132 35 13 -9 9 -24 -7 -24 -8 0 -15 -4
-15 -10 0 -5 7 -10 15 -10 24 0 17 -19 -9 -26 -14 -3 -32 -14 -42 -25 -16 -18
-16 -19 10 -19 44 0 86 -49 93 -109 l6 -51 -82 0 c-47 0 -81 -4 -81 -10 0 -5
19 -10 43 -10 59 0 131 -24 135 -44 3 -13 -6 -16 -49 -16 -62 0 -56 -14 10
-27 47 -9 49 -12 65 -95 l7 -38 -51 0 c-51 0 -67 13 -30 25 33 10 24 35 -12
35 -18 0 -44 3 -57 7 l-24 6 24 18 c22 17 23 19 4 19 -11 0 -42 -11 -70 -24
l-49 -24 37 -6 c20 -3 53 -8 72 -11 40 -7 44 -15 15 -33 -29 -18 -25 -32 9
-32 17 0 33 -5 36 -11 5 -7 25 -8 56 -4 49 7 49 7 49 -22 0 -27 -5 -31 -54
-46 -30 -10 -65 -26 -78 -37 -23 -19 -23 -19 -1 -20 11 0 44 12 72 26 49 26
87 26 78 1 -2 -6 -12 -12 -23 -12 -27 0 -24 -19 4 -23 12 -2 22 -7 22 -12 0
-9 -14 -14 -67 -25 -18 -4 -33 -11 -33 -16 0 -12 11 -11 61 6 44 16 58 10 59
-23 0 -21 -512 -15 -554 7 -43 22 -382 29 -441 9 -31 -10 -81 -11 -215 -6
-299 12 -981 62 -1024 75 -17 5 -18 6 -3 15 10 5 17 14 17 19 0 6 -10 3 -22
-5 -32 -23 -34 -21 -30 24 5 45 13 49 41 19 16 -17 27 -20 55 -15 28 5 39 2
62 -19 19 -18 38 -25 66 -25 21 0 47 -5 57 -12 26 -16 106 8 137 41 27 29 25
38 -5 22 -16 -9 -24 -7 -43 12 -13 13 -23 29 -23 37 0 23 -22 23 -45 0 -17
-17 -25 -19 -33 -10 -9 10 -9 14 1 17 6 3 12 11 12 19 0 10 -13 14 -44 14 -69
0 -78 7 -50 37 13 14 22 28 20 30 -2 3 -27 -2 -55 -11 -49 -14 -53 -14 -85 5
-25 15 -33 25 -29 40 3 10 9 22 14 25 5 3 9 10 9 16 0 6 -7 5 -16 -3 -15 -12
-16 -10 -9 21 9 43 12 47 27 32 15 -15 98 -16 98 -2 0 14 56 12 68 -2 5 -7 12
-22 14 -33 3 -17 10 -20 44 -17 30 2 45 -2 59 -18 10 -11 31 -20 47 -20 50 0
27 35 -31 46 -23 5 -30 11 -27 21 10 26 -5 35 -30 18 -33 -21 -66 -2 -57 34 5
22 3 23 -26 19 -17 -2 -31 -1 -31 4 0 15 -23 8 -47 -14 -19 -18 -27 -19 -47
-10 -19 8 -22 16 -18 38 4 22 2 26 -12 21 -18 -7 -19 -6 -10 16 4 11 17 13 52
9 26 -2 51 -8 55 -12 5 -4 26 -5 48 -3 35 4 41 2 46 -16 4 -14 16 -24 35 -28
15 -3 31 -10 34 -14 3 -5 24 -9 48 -9 32 0 48 -6 66 -25 27 -29 51 -31 86 -9
22 15 30 15 66 3 23 -7 60 -26 82 -41 23 -15 53 -28 67 -28 16 0 36 -11 52
-30 29 -33 58 -37 97 -16 25 14 59 8 88 -16 8 -7 21 -13 30 -13 45 -5 118 -38
127 -57 16 -35 38 -43 74 -28 20 8 30 18 27 26 -3 7 -1 16 4 19 6 4 10 0 10
-7 0 -7 21 -24 46 -37 41 -22 49 -23 81 -11 32 11 38 10 48 -3 6 -9 30 -23 52
-32 32 -13 46 -14 62 -5 24 12 19 32 -7 29 -10 -1 -36 6 -59 16 -35 15 -40 20
-28 29 9 6 11 16 7 24 -6 9 -20 6 -58 -13 -62 -31 -66 -31 -91 4 l-21 28 26
27 c19 19 22 26 11 26 -8 0 -24 -7 -35 -15 -23 -18 -25 -18 -47 -1 -17 13 -17
16 -2 46 14 28 15 34 2 48 -8 10 -12 23 -10 30 7 17 -17 15 -39 -5 -24 -21
-23 -39 3 -46 12 -3 18 -10 14 -16 -4 -7 -17 -3 -36 11 -31 23 -35 33 -19 43
13 8 13 35 1 35 -5 0 -24 -12 -42 -27 -20 -17 -42 -26 -56 -25 -18 3 -23 -1
-23 -18 0 -19 5 -21 57 -18 52 3 59 1 68 -19 5 -13 18 -23 27 -23 37 0 41 -59
6 -88 -19 -15 -64 13 -50 31 22 28 21 46 -1 44 -12 0 -38 0 -59 1 -31 2 -35 5
-31 22 6 23 -13 27 -36 6 -13 -11 -23 -11 -49 -2 l-33 12 24 26 c14 15 38 30
54 34 28 7 73 47 73 65 0 15 -22 10 -35 -8 -11 -15 -14 -14 -32 4 -19 19 -19
22 -4 41 18 23 82 52 117 52 26 0 40 15 23 25 -5 4 -8 13 -5 21 8 21 -13 28
-33 10 -10 -9 -34 -16 -54 -16 -34 0 -36 -1 -27 -24 8 -21 5 -26 -21 -36 -16
-7 -33 -20 -38 -28 -8 -14 -12 -14 -36 2 l-26 17 24 32 c16 21 40 36 71 45 44
13 63 32 31 32 -8 0 -15 5 -15 10 0 23 -36 7 -73 -31 l-39 -42 -43 21 c-35 17
-42 25 -38 41 6 23 -15 29 -34 10 -6 -6 -19 -9 -29 -7 -13 2 -7 10 24 31 23
15 42 34 42 42 0 19 -3 19 -42 -5 -33 -20 -114 -26 -150 -12 -15 7 -15 8 0 28
10 11 30 29 45 38 49 33 28 38 -29 7 -61 -33 -87 -32 -78 4 6 24 -10 43 -21
25 -11 -17 -35 -11 -44 11 -10 29 -71 36 -71 9 0 -11 10 -20 27 -25 15 -3 37
-16 49 -28 62 -59 70 -67 79 -67 6 0 23 -12 38 -26 l29 -25 -27 -21 c-17 -13
-23 -24 -17 -30 15 -15 52 9 52 34 0 18 4 20 33 14 17 -3 38 -15 46 -26 8 -12
25 -20 40 -20 41 0 75 -40 66 -79 -7 -35 -17 -37 -69 -16 -31 13 -35 19 -30
40 5 22 1 27 -30 40 -50 21 -56 19 -39 -15 14 -29 13 -32 -9 -50 -12 -11 -36
-27 -53 -36 l-30 -16 28 26 c15 15 27 31 27 37 0 6 -18 18 -40 26 -25 10 -39
21 -36 29 8 21 -21 24 -39 4 -13 -15 -22 -17 -42 -9 -31 12 -33 11 -33 -3 1
-31 16 -40 53 -30 27 8 40 7 56 -5 31 -21 26 -35 -24 -66 -38 -22 -53 -26 -85
-21 -22 4 -40 8 -40 10 0 2 10 14 22 26 28 28 10 35 -34 12 l-33 -16 23 21
c28 27 28 28 -7 49 l-30 18 74 44 c58 36 74 51 77 73 3 15 2 29 0 32 -9 8 -42
-16 -42 -30 0 -8 -4 -15 -10 -15 -8 0 -58 19 -69 26 -2 2 6 16 18 32 30 43 26
48 -13 18 -43 -32 -60 -34 -53 -4 4 15 -1 30 -15 45 -28 30 -15 44 61 72 72
26 83 26 107 0 12 -14 25 -18 41 -14 15 3 30 -2 44 -16 24 -24 39 -17 21 11
-6 11 -9 26 -6 34 8 22 -15 30 -36 11 -21 -19 -65 -12 -57 10 3 7 0 18 -6 24
-6 6 -8 12 -4 12 13 3 22 6 50 17 40 17 46 15 59 -13 6 -14 17 -25 25 -25 18
0 17 29 -2 36 -8 4 -15 17 -15 29 0 13 -4 26 -9 29 -14 9 -41 -4 -41 -19 0
-15 -35 -30 -49 -21 -4 3 -6 17 -4 30 4 21 2 24 -16 19 -12 -3 -24 -9 -27 -14
-8 -14 -34 17 -34 40 0 18 -3 19 -24 9 -31 -13 -40 -36 -24 -55 7 -9 -6 -6
-35 8 -26 13 -43 25 -38 28 11 8 33 51 25 51 -3 0 -26 -13 -50 -29 l-43 -30
-41 47 c-26 29 -39 53 -37 64 3 10 1 18 -4 18 -5 0 -9 3 -9 8 0 4 30 7 68 7
57 0 73 -4 107 -27 23 -16 53 -28 71 -28 23 0 33 -5 37 -20 3 -13 14 -20 29
-20 13 0 33 -7 44 -15 10 -8 30 -15 44 -15 14 0 36 -7 50 -15 14 -8 34 -14 46
-15 11 0 29 -8 38 -19 10 -11 37 -21 64 -25 26 -3 58 -13 70 -22 14 -10 32
-14 48 -10 40 10 39 -17 -1 -83 -20 -33 -34 -64 -30 -70 11 -19 -13 -12 -40
12 l-27 23 31 33 c17 18 31 35 31 37 0 11 -26 1 -51 -20 -29 -24 -30 -25 -62
-8 -17 9 -34 18 -36 20 -3 1 1 8 7 14 14 14 16 38 2 38 -10 0 -50 -40 -50 -50
0 -4 11 -12 25 -18 14 -7 30 -23 37 -37 6 -14 20 -25 31 -25 10 0 34 -15 53
-34 24 -24 47 -36 77 -41 56 -9 108 -26 128 -42 9 -7 41 -13 76 -13 47 0 64
-4 78 -20 10 -11 22 -20 27 -20 15 0 8 29 -9 42 -10 7 -18 19 -18 27 0 8 -6
16 -12 19 -7 2 -13 -2 -13 -8 0 -13 -109 -4 -124 11 -6 6 -5 9 3 9 11 0 11 3
1 15 -11 13 -16 12 -40 -5 -40 -28 -48 -25 -15 6 20 19 25 28 16 37 -8 8 -17
5 -34 -12 l-24 -22 -14 23 c-9 14 -13 36 -9 58 7 47 37 51 73 10 15 -16 35
-30 45 -31 42 -2 79 -12 107 -28 16 -10 50 -21 74 -25 28 -4 57 -18 79 -37 35
-31 55 -33 60 -8 2 9 -21 25 -63 43 -36 15 -65 32 -65 38 0 5 11 26 25 46 30
45 31 74 4 119 -12 18 -18 40 -15 48 8 21 -13 30 -27 11 -11 -14 -17 -13 -54
11 -37 24 -41 31 -36 57 5 22 3 27 -6 21 -8 -4 -18 1 -27 14 -18 25 -30 27
-38 5 -4 -10 5 -26 25 -45 24 -23 29 -32 20 -43 -9 -10 -6 -17 13 -30 14 -9
30 -16 36 -16 20 0 94 -48 107 -69 10 -15 9 -22 -2 -31 -8 -6 -26 -32 -40 -56
-14 -24 -28 -44 -31 -44 -4 0 -83 48 -93 56 -6 5 53 60 70 66 8 3 11 9 7 13
-4 4 -37 -11 -73 -33 -45 -29 -65 -37 -65 -27 0 8 4 15 8 15 4 0 8 9 9 20 2
28 -12 25 -36 -7 -24 -29 -39 -26 -22 5 13 25 14 42 2 42 -12 0 -91 76 -91 88
0 25 28 17 65 -18 33 -31 50 -39 97 -45 37 -4 58 -2 63 5 10 16 4 19 -63 33
-34 7 -63 15 -67 18 -3 4 8 20 24 38 33 35 21 41 -24 11 -35 -23 -52 -26 -36
-6 9 11 9 16 0 22 -9 5 -7 11 6 20 10 8 16 17 12 20 -4 4 -2 13 4 21 17 19 89
16 132 -7 20 -11 44 -20 53 -20 8 0 28 -14 43 -31 28 -30 30 -31 66 -18 35 13
38 13 57 -14 11 -15 26 -27 35 -27 8 0 27 -13 43 -30 26 -28 31 -29 144 -35
64 -3 116 -2 116 3 0 11 78 37 87 29 7 -8 33 11 33 25 0 5 -4 6 -10 3 -5 -3
-10 -1 -10 5 0 10 -39 30 -84 45 -18 5 -18 6 3 28 27 30 27 34 -9 52 -41 21
-47 19 -20 -10 l23 -24 -24 -20 c-15 -13 -19 -20 -10 -21 7 0 29 -14 48 -30
29 -26 32 -31 16 -36 -10 -3 -29 -10 -43 -14 -14 -5 -50 -11 -80 -14 l-55 -6
30 24 c44 36 24 42 -33 10 -45 -25 -52 -26 -81 -14 -29 12 -30 14 -16 30 25
28 18 43 -11 23 -23 -15 -27 -15 -35 -1 -5 8 -22 21 -39 28 -19 8 -29 18 -26
26 10 27 -18 27 -41 0 -22 -27 -23 -27 -47 -9 -20 15 -23 24 -19 53 5 33 4 34
-12 19 -16 -16 -20 -16 -64 3 -25 10 -57 24 -71 30 l-25 10 40 34 c21 19 50
37 63 41 29 7 131 -15 153 -34 8 -7 33 -13 53 -13 29 0 39 -5 43 -19 3 -11 12
-22 22 -24 13 -3 13 -5 -4 -11 -11 -4 -27 -11 -35 -16 -19 -9 -43 6 -53 34 -6
15 -10 16 -22 6 -22 -18 -18 -49 8 -59 35 -12 106 -1 120 19 19 28 60 34 95
16 43 -22 104 -20 133 4 26 21 15 26 -23 11 -15 -5 -44 -5 -75 1 -41 8 -50 13
-46 28 7 28 -13 32 -25 5 l-12 -25 -44 22 c-25 12 -43 25 -40 30 10 16 -7 28
-25 19 -27 -15 -146 24 -148 49 -1 14 7 20 38 25 34 6 47 3 82 -22 30 -20 56
-29 92 -30 142 -7 162 -10 185 -26 14 -10 33 -14 47 -11 12 3 36 1 53 -4 39
-14 51 4 13 20 -38 16 -37 16 -23 33 7 9 10 18 7 22 -8 8 -57 -24 -63 -42 -5
-11 -11 -12 -32 -2 -37 15 -36 15 -22 32 16 20 -7 21 -35 2 -12 -8 -35 -12
-56 -10 -30 4 -36 8 -32 24 5 18 3 18 -30 4 -31 -13 -39 -13 -78 2 -57 22 -56
20 -31 46 33 35 27 37 -27 15 -51 -22 -123 -19 -120 5 4 31 -2 37 -27 31 -18
-5 -29 -1 -38 11 -17 23 -32 13 -39 -25 -7 -31 -25 -37 -74 -24 l-23 6 21 29
c21 30 18 49 -7 49 -32 0 -11 19 34 29 39 10 54 9 84 -3 70 -30 128 -38 178
-25 43 11 49 10 79 -11 28 -21 35 -23 64 -12 25 9 40 9 65 0 25 -10 39 -10 66
0 19 7 52 12 73 11 42 -3 67 7 58 22 -4 5 -19 9 -35 9 -22 0 -28 4 -24 15 8
19 18 19 52 1z m747 -87 c6 -4 30 -10 54 -14 25 -4 70 -16 100 -27 64 -22 55
-20 181 -48 52 -12 135 -27 185 -34 70 -9 91 -15 93 -29 3 -15 -7 -16 -110
-11 -132 7 -267 32 -430 80 -182 53 -265 95 -210 106 19 4 121 -14 137 -23z
m-6125 -27 c0 -13 126 -72 152 -72 16 1 67 29 53 30 -10 0 15 20 26 20 4 0 -6
-37 -22 -82 -16 -46 -29 -94 -29 -107 0 -22 -3 -23 -39 -18 -67 9 -271 155
-271 194 0 7 10 13 23 13 13 0 32 7 43 15 21 16 64 20 64 7z m4015 -32 c34 0
68 -18 62 -33 -3 -9 7 -11 34 -9 60 6 89 -4 89 -31 0 -29 18 -47 47 -47 29 0
133 -58 133 -73 0 -7 13 -19 29 -28 42 -24 47 -73 10 -100 -26 -18 -31 -19
-64 -5 l-37 16 22 30 c12 17 20 33 17 36 -4 5 -66 -32 -95 -57 -7 -6 -16 -8
-19 -5 -3 3 11 15 31 27 25 15 36 28 36 45 0 13 -4 24 -10 24 -5 0 -10 11 -10
24 0 14 -6 28 -12 32 -7 4 -10 4 -6 -1 12 -13 -35 -33 -54 -23 -27 13 -38 10
-38 -12 0 -16 7 -20 33 -20 38 0 73 -22 63 -39 -4 -6 -11 -9 -15 -7 -4 3 -21
-3 -38 -13 -38 -24 -62 -13 -55 25 4 24 3 26 -19 19 -13 -4 -28 -10 -34 -14
-5 -4 -34 5 -64 20 -34 17 -49 29 -41 34 7 5 10 19 6 40 -6 28 -2 36 19 53 39
31 30 42 -16 21 l-40 -20 -22 28 c-12 15 -20 36 -19 46 3 15 -1 18 -18 12 -19
-6 -21 -5 -11 14 10 19 13 19 46 5 19 -7 46 -14 60 -14z m4410 -81 c-21 -5 -9
-7 40 -7 52 0 62 2 40 8 -21 5 -7 8 50 8 44 0 96 -6 115 -13 19 -7 31 -14 25
-14 -5 -1 -3 -6 5 -11 10 -7 -5 -8 -50 -3 -77 9 -395 8 -565 -2 -66 -4 -116
-4 -112 1 4 4 36 8 70 7 44 -1 55 1 37 7 -26 8 3 11 168 15 40 1 75 5 78 8 3
3 33 5 67 4 47 0 55 -2 32 -8z m-3918 -103 c4 -8 29 -24 56 -35 55 -24 59 -42
18 -80 -39 -37 -50 -79 -26 -97 10 -8 16 -17 12 -20 -9 -9 -87 38 -87 52 0 23
-19 25 -40 4 -11 -11 -20 -16 -20 -11 0 14 67 61 88 61 21 0 49 26 39 37 -4 3
-13 0 -21 -6 -12 -10 -20 -7 -45 21 -33 36 -38 57 -19 76 16 16 35 15 45 -2z
m1233 -45 c0 -4 -17 -12 -37 -17 -20 -5 -38 -15 -41 -21 -5 -18 38 -16 62 2
23 17 56 20 56 5 0 -5 -10 -10 -22 -10 -22 -1 -21 -2 5 -16 15 -8 27 -19 27
-25 0 -5 -30 -23 -66 -39 -51 -23 -65 -34 -60 -46 5 -13 1 -15 -21 -9 -43 10
-47 21 -14 35 17 7 31 16 31 21 0 11 -1 11 -38 -2 -26 -9 -35 -8 -47 4 -14 14
-13 18 7 42 24 28 138 94 151 88 4 -2 7 -8 7 -12z m2520 -81 c0 -18 -7 -20
-82 -20 -46 0 -114 -7 -153 -16 -63 -13 -132 -28 -192 -40 -12 -2 -34 -9 -48
-14 -15 -6 -38 -7 -53 -4 -22 5 -24 3 -12 -6 12 -9 9 -10 -13 -5 -17 3 -26 2
-23 -4 3 -5 -1 -11 -9 -15 -9 -3 -15 0 -15 9 0 15 64 40 80 30 5 -3 10 -1 10
4 0 6 12 11 26 11 15 0 41 8 58 19 36 22 130 45 150 38 7 -3 18 -1 23 4 14 14
95 26 181 28 66 1 72 -1 72 -19z m-4218 -90 c27 -30 80 -42 93 -20 8 13 62 13
70 0 4 -6 -1 -23 -10 -37 -15 -23 -19 -24 -27 -10 -13 24 -27 21 -37 -6 -7
-17 -27 -29 -72 -45 -64 -22 -79 -21 -79 4 0 19 -16 18 -32 -3 -15 -20 -76
-45 -90 -37 -5 3 -5 11 1 18 12 15 -3 41 -18 32 -12 -8 -15 42 -3 59 16 24 72
55 99 55 15 0 35 5 43 10 24 15 34 12 62 -20z m2174 -16 c-8 -20 15 -68 25
-53 4 8 13 -7 22 -37 8 -27 12 -50 8 -52 -4 -1 -5 -32 -3 -70 2 -37 3 -79 3
-94 0 -15 4 -30 10 -34 6 -4 4 -13 -7 -25 -11 -12 -13 -19 -5 -19 8 0 10 -7 5
-22 -4 -13 -8 -33 -10 -45 -4 -39 -14 -46 -58 -40 -22 3 -42 11 -44 16 -2 6
-12 11 -21 11 -14 0 -18 8 -19 33 -2 57 -3 67 -13 72 -5 4 -9 23 -9 44 0 51
-11 102 -20 96 -14 -9 -22 47 -8 57 8 6 9 11 2 14 -7 3 -8 22 -3 57 4 28 8 59
8 68 1 17 47 43 61 34 4 -3 19 -1 32 4 29 10 51 3 44 -15z m-2182 -188 c3 -13
2 -35 -3 -48 -4 -13 -6 -29 -4 -35 3 -7 0 -13 -5 -13 -5 0 -24 -3 -42 -6 -29
-6 -32 -5 -26 13 4 14 1 23 -9 27 -8 3 -15 1 -15 -5 0 -5 -16 -17 -36 -25 -34
-14 -38 -14 -55 3 -10 10 -19 37 -21 63 l-3 45 37 -3 c38 -4 77 11 91 34 12
21 83 -18 91 -50z m84 -113 l20 -27 -49 -28 -48 -28 -33 20 c-42 25 -47 25
-45 -2 1 -29 14 -38 54 -38 46 0 63 -9 63 -35 0 -48 -84 -37 -96 12 -6 21 -10
23 -38 17 -17 -3 -37 -11 -45 -18 -11 -9 -13 -7 -7 11 8 25 -9 40 -28 24 -22
-18 -46 -2 -46 31 0 26 -2 29 -15 18 -13 -11 -15 -8 -15 14 0 25 14 36 22 17
5 -14 149 -23 165 -10 27 23 79 48 100 48 12 1 30 -10 41 -26z m-1841 -38 c15
0 15 -14 -1 -37 -7 -9 -29 -18 -51 -20 -38 -3 -41 -6 -72 -69 -17 -37 -37 -70
-43 -74 -37 -23 -36 91 1 147 23 36 52 52 109 60 14 2 30 2 35 -1 6 -3 16 -6
22 -6z m2190 -129 c4 -7 35 -28 68 -45 67 -36 82 -53 60 -71 -8 -7 -15 -21
-15 -31 0 -16 -5 -18 -27 -13 -53 11 -55 12 -33 34 33 33 26 49 -12 29 -15 -8
-37 -6 -89 6 -65 16 -91 34 -51 36 12 0 13 2 3 6 -10 4 -5 14 20 34 37 31 64
36 76 15z m-1915 -70 c50 -24 75 -28 205 -36 81 -5 169 -12 194 -15 31 -4 75
0 133 14 48 12 90 21 94 21 3 0 -44 -47 -104 -105 -107 -104 -110 -105 -149
-100 -22 3 -98 8 -168 12 -109 5 -127 8 -122 21 3 9 -7 31 -22 51 -16 20 -53
67 -83 105 -30 38 -50 67 -45 65 6 -3 36 -17 67 -33z m767 -2 c18 12 13 -42
-6 -64 -10 -11 -27 -30 -38 -42 -11 -13 -38 -43 -59 -68 l-39 -45 -89 -5 c-48
-3 -88 -4 -88 -3 0 13 68 63 86 63 37 0 72 18 111 55 20 19 40 35 44 35 5 0
16 14 24 30 9 17 21 28 26 24 8 -4 9 2 4 17 -4 17 -3 20 3 10 5 -7 15 -10 21
-7z m504 -178 c21 -5 43 -16 50 -26 7 -10 30 -21 50 -25 21 -4 44 -16 51 -26
11 -16 18 -18 38 -10 33 13 50 0 46 -35 -2 -24 -8 -30 -32 -32 -16 -2 -33 1
-39 7 -8 8 -7 11 2 11 7 0 9 5 5 11 -3 6 -19 9 -35 5 -37 -7 -79 12 -79 36 0
20 -20 24 -36 8 -7 -7 -21 -7 -45 1 -45 15 -52 23 -54 57 -1 32 6 34 78 18z
m-269 -106 c76 -10 106 -21 106 -43 0 -6 -28 -7 -82 -3 -46 4 -143 11 -216 16
-144 10 -170 17 -128 34 31 13 202 10 320 -4z m-661 -22 l47 -10 0 -71 c-1
-40 -7 -121 -14 -182 -7 -60 -11 -114 -9 -118 3 -5 2 -19 -1 -33 -6 -23 -10
-24 -79 -24 -39 0 -125 5 -189 12 l-118 12 0 56 c0 31 8 81 17 111 9 30 16 57
15 62 -1 4 3 7 8 7 6 0 10 11 10 24 0 14 5 28 10 31 6 4 8 15 5 26 -4 10 -3
24 2 31 4 7 8 15 9 18 4 22 25 59 36 64 18 8 191 -3 251 -16z m210 -20 c52
-27 55 -38 50 -190 -4 -140 -23 -262 -46 -292 -11 -13 -19 -12 -72 9 -33 13
-68 26 -77 29 -15 4 -17 15 -12 73 3 37 10 93 15 123 5 30 12 99 16 152 l6 97
41 4 c23 2 45 4 49 5 5 1 18 -3 30 -10z m3742 -68 c4 -6 5 -14 2 -16 -5 -5
-151 -12 -629 -29 -126 -5 -178 -3 -178 4 0 23 50 31 235 39 310 13 563 14
570 2z m-1442 -114 c21 -10 22 -35 3 -61 -12 -17 -31 -19 -197 -21 -204 -3
-225 -9 -243 -74 -9 -29 -7 -35 18 -56 28 -25 35 -26 176 -26 67 -1 89 -8 90
-29 0 -7 -61 -34 -110 -48 -19 -5 -68 -12 -109 -15 -41 -3 -76 -8 -79 -11 -3
-3 -7 -23 -8 -44 -5 -93 103 -140 322 -141 39 0 99 -3 133 -6 50 -6 61 -10 61
-25 0 -19 -33 -45 -95 -73 -78 -35 -337 -33 -478 5 -113 30 -218 218 -203 362
3 32 14 78 25 101 19 44 77 116 92 116 6 0 -2 -12 -16 -27 -37 -41 -31 -46 18
-14 50 34 193 83 262 90 75 9 317 6 338 -3z m3710 -40 c-30 -41 -80 -58 -205
-68 -114 -10 -228 -4 -228 11 0 23 36 30 163 32 97 1 158 7 204 20 36 10 68
21 71 24 14 14 11 2 -5 -19z m-465 -73 c-3 -25 -8 -29 -48 -35 -62 -9 -460
-10 -460 0 0 4 -102 8 -226 9 -125 1 -228 4 -231 7 -3 2 -2 10 2 16 8 13 403
4 440 -10 20 -7 55 -3 205 24 41 7 130 14 198 15 l123 1 -3 -27z m-35 -141
c14 -4 7 -40 -10 -47 -27 -11 -313 -18 -356 -8 -47 10 -52 24 -12 35 40 12
341 27 378 20z m-5717 -119 c-3 -32 -13 -170 -21 -308 -18 -287 -37 -450 -64
-527 -60 -175 -140 -240 -234 -191 -30 15 -56 40 -57 54 0 4 13 12 29 19 47
19 70 89 87 260 2 25 7 52 10 62 5 18 8 78 19 428 3 129 8 241 10 248 3 9 35
12 116 12 l111 0 -6 -57z m58 28 c5 -8 82 -26 99 -22 4 0 7 -4 7 -10 0 -5 4
-7 10 -4 16 10 22 -40 10 -84 -6 -24 -17 -93 -25 -154 -8 -62 -21 -152 -29
-202 -8 -49 -27 -164 -42 -255 -49 -310 -86 -407 -192 -509 l-67 -63 -85 5
c-103 5 -178 34 -215 83 -93 121 -162 386 -127 485 4 13 8 47 7 74 -1 28 3 53
8 56 5 4 12 21 16 40 5 27 12 35 38 40 17 3 36 3 42 0 16 -10 160 6 177 19 25
21 16 5 -60 -108 -67 -101 -96 -167 -96 -221 0 -10 -5 -21 -11 -23 -18 -6 -23
-119 -6 -159 20 -48 72 -106 111 -123 90 -41 162 -22 225 57 12 15 12 17 -3
11 -11 -4 -3 14 23 51 85 121 112 262 141 715 5 91 12 198 16 238 5 66 14 86
28 63z m326 -12 c66 -15 250 -39 375 -49 61 -5 155 -14 210 -21 55 -6 134 -13
175 -14 41 -1 93 -7 115 -13 45 -13 83 -16 315 -32 118 -8 172 -16 190 -27 23
-16 23 -17 5 -24 -11 -4 -40 -6 -65 -4 -25 3 -85 7 -135 10 -162 10 -320 26
-330 35 -5 4 -66 10 -135 13 -69 3 -165 10 -215 16 -49 5 -124 12 -165 15
-150 10 -436 58 -455 77 -7 7 -5 13 5 19 19 12 54 12 110 -1z m5230 -84 c0 -8
-4 -15 -10 -15 -12 0 14 -71 56 -150 1 -3 -1 -12 -6 -20 -7 -12 -16 -8 -47 22
-60 58 -110 79 -200 83 -43 2 -82 4 -88 5 -5 0 -3 5 5 10 13 9 13 10 0 11 -30
1 56 28 95 28 22 1 56 10 75 20 43 24 120 28 120 6z m-1989 -60 c8 4 3 -3 -10
-15 -13 -13 -36 -25 -50 -26 -14 -2 -27 -8 -29 -14 -2 -6 -15 -7 -29 -4 -18 5
-24 3 -19 -5 4 -7 0 -11 -11 -11 -10 -1 -132 -5 -271 -10 -140 -5 -260 -6
-268 -3 -27 10 -14 31 24 37 20 4 133 9 251 11 247 5 314 11 356 35 18 10 32
13 36 7 4 -5 13 -6 20 -2z m570 -125 c28 -16 25 -45 -3 -35 -43 15 -253 17
-438 5 -221 -14 -362 -33 -490 -66 -52 -13 -115 -29 -140 -35 -53 -13 -203
-85 -240 -115 -14 -12 -34 -26 -45 -31 -32 -17 -207 -65 -213 -59 -3 3 -10 2
-16 -3 -28 -23 -185 -51 -376 -66 -41 -3 -131 -13 -200 -22 -130 -16 -384 -13
-432 6 -13 5 -43 14 -68 21 -25 7 -61 18 -80 25 -19 7 -51 18 -70 25 -19 7
-47 15 -63 17 -15 3 -30 9 -33 14 -3 5 -21 9 -40 9 -35 0 -146 50 -160 71 -8
13 -135 73 -214 101 -90 31 -291 81 -354 87 -33 3 -61 11 -63 18 -3 7 3 10 14
8 10 -3 34 -6 53 -9 121 -16 367 -68 430 -92 41 -15 105 -47 141 -70 36 -23
90 -50 120 -59 30 -9 81 -25 114 -36 33 -11 83 -26 110 -34 28 -8 77 -23 110
-35 40 -14 104 -25 190 -31 71 -5 145 -14 165 -19 46 -13 97 -13 105 1 4 5 17
14 29 19 21 8 210 32 361 45 83 8 148 22 192 41 17 8 40 14 50 14 38 0 160 49
285 114 70 36 136 66 146 66 10 0 22 3 26 7 4 4 13 8 19 8 7 1 31 6 54 13 55
16 314 50 478 63 72 5 173 13 225 18 142 12 299 12 321 1z m-4897 -205 c-2
-18 -53 -36 -172 -59 -64 -13 -130 -30 -147 -37 -42 -19 -135 -80 -135 -89 0
-4 -7 -11 -15 -14 -10 -3 -6 7 11 29 14 19 31 35 37 35 6 0 8 3 4 6 -7 7 84
70 133 92 79 35 287 62 284 37z m6089 -683 c-6 -4 -18 -23 -26 -42 -17 -41
-93 -118 -156 -161 -70 -46 -172 -73 -257 -66 -38 4 -86 13 -105 21 -37 16
-116 73 -86 63 9 -4 17 -2 17 2 0 5 19 0 43 -12 29 -14 68 -22 130 -25 77 -4
100 -1 173 23 46 15 81 31 78 36 -3 5 3 6 12 2 12 -4 15 -3 10 5 -4 7 -2 12 6
12 7 0 29 15 48 33 19 19 46 39 58 46 13 7 22 17 19 24 -4 13 34 60 42 51 3
-3 0 -8 -6 -12z m-3026 -83 c-24 -33 -93 -88 -132 -105 -100 -41 -382 -56
-534 -28 -93 17 -114 25 -148 57 -36 33 -27 36 45 15 163 -48 385 -57 550 -23
95 19 180 55 174 73 -2 7 2 10 11 7 7 -3 20 1 27 10 18 22 24 18 7 -6z m-3777
-84 c6 -8 37 -26 68 -40 79 -36 183 -43 280 -18 39 11 72 16 72 13 0 -14 -40
-42 -77 -56 -47 -16 -178 -18 -224 -3 -39 13 -135 83 -143 105 -7 18 8 18 24
-1z m937 -1586 c15 -6 37 -15 48 -20 22 -9 125 -38 165 -46 14 -2 34 -8 45
-13 20 -9 35 -11 150 -29 75 -12 127 -30 122 -44 -14 -42 -385 37 -494 106
-21 13 -48 27 -61 31 -12 4 -20 12 -17 17 8 11 8 11 42 -2z m-24 -938 c102
-15 101 -15 109 -26 5 -7 14 -6 27 2 17 10 20 9 25 -12 3 -13 18 -28 33 -34
34 -13 58 -28 95 -61 16 -14 46 -35 66 -46 20 -12 36 -27 35 -33 -2 -6 6 -11
16 -11 11 0 22 -4 26 -9 9 -16 -44 4 -131 48 -99 49 -152 71 -309 126 -85 30
-121 47 -123 60 -3 15 1 17 30 12 18 -4 64 -11 101 -16z m-36 -147 c146 -38
260 -85 270 -111 3 -7 13 -13 22 -14 11 0 12 -2 3 -6 -7 -3 -48 9 -90 25 -42
17 -111 40 -152 51 -166 44 -195 55 -185 72 9 13 23 12 132 -17z m4623 -68 c0
-8 6 -21 14 -28 7 -8 21 -28 30 -46 14 -27 21 -31 41 -26 19 5 25 2 25 -11 0
-12 6 -16 20 -12 17 4 20 0 20 -28 0 -29 -2 -32 -25 -27 -21 4 -27 -1 -39 -29
-23 -58 -28 -99 -11 -99 8 0 15 4 15 10 0 5 16 17 36 25 28 11 40 12 51 4 10
-9 17 -8 31 3 11 11 42 16 96 17 68 2 78 0 73 -13 -4 -11 -1 -16 11 -17 9 0
-42 -15 -113 -33 -75 -18 -163 -48 -205 -69 -42 -20 -82 -37 -90 -36 -10 0
-11 2 -2 6 6 2 10 8 7 13 -2 4 11 25 31 45 35 37 36 40 29 94 -4 31 -11 63
-15 71 -4 8 -11 45 -15 82 -4 37 -14 73 -21 79 -16 13 -19 39 -4 39 6 0 10 -6
10 -14z m-4622 -318 c9 0 22 -2 29 -2 6 -1 15 -5 19 -9 4 -4 14 -7 22 -7 9 0
23 -6 31 -14 9 -8 40 -26 69 -41 29 -15 52 -33 52 -42 0 -17 0 -17 -115 15
-82 23 -223 42 -313 42 -59 0 -62 1 -53 19 9 15 31 22 117 32 78 10 108 17
112 29 6 13 7 12 10 -2 2 -10 11 -19 20 -20z m5092 -80 c12 -8 11 -8 -3 -4
-47 15 -200 -41 -342 -124 -27 -15 -53 -26 -58 -23 -5 3 19 31 52 64 61 59 73
64 206 97 43 11 121 5 145 -10z m-5089 -91 c47 -13 92 -28 100 -35 8 -7 25
-22 39 -33 21 -18 22 -21 5 -16 -115 34 -255 57 -339 57 -77 0 -96 3 -96 14 0
10 16 17 48 21 26 4 52 8 57 10 29 10 109 2 186 -18z m5103 -46 c3 -4 17 -6
31 -3 14 2 25 0 25 -5 0 -6 -53 -20 -117 -32 -65 -13 -158 -36 -207 -52 -49
-16 -91 -27 -94 -24 -3 3 1 5 8 5 7 0 10 3 7 6 -8 8 58 62 93 77 79 33 240 51
254 28z m-104 -166 c0 -10 11 -15 33 -16 38 -1 89 -5 174 -14 43 -5 66 -12 72
-23 8 -14 15 -15 38 -6 29 11 60 11 128 -1 31 -5 37 -4 25 5 -12 9 -10 10 10
3 14 -4 40 -7 58 -7 18 0 27 -3 21 -7 -8 -5 -4 -9 12 -13 13 -2 -5 -2 -41 1
-36 3 -158 4 -272 4 -231 -2 -269 -9 -377 -67 -35 -19 -65 -33 -68 -30 -7 7
28 76 38 76 5 0 9 7 9 15 0 8 6 15 13 15 8 0 7 4 -3 11 -12 8 -10 9 8 4 21 -6
23 -4 18 17 -3 12 -3 17 0 11 8 -17 34 -17 34 0 0 7 12 18 28 24 38 15 42 15
42 -2z m-5735 -486 c92 -32 262 -46 580 -48 160 -1 319 -6 355 -10 36 -5 69
-6 74 -3 5 2 7 -1 4 -9 -4 -12 -75 -14 -424 -14 -375 0 -427 2 -499 19 -83 20
-141 40 -163 59 -12 9 -8 18 13 27 1 0 28 -9 60 -21z m5620 -19 c33 -6 107
-10 165 -10 58 1 110 1 115 1 114 -6 206 -12 230 -16 17 -2 87 -5 156 -6 137
-1 167 -9 134 -35 -17 -13 -56 -15 -260 -11 -268 4 -425 12 -500 26 -27 5 -80
13 -117 16 -47 5 -68 11 -68 20 0 23 59 29 145 15z"/>
<path d="M16367 23273 c-9 -15 -28 -122 -68 -388 -65 -435 -91 -627 -110 -805
-6 -58 -17 -148 -24 -200 -8 -52 -19 -135 -25 -185 -22 -187 -76 -487 -117
-655 -52 -213 -85 -313 -152 -450 l-68 -141 -21 49 c-22 52 -178 516 -230 687
-17 55 -42 152 -55 215 -22 101 -36 199 -87 630 -17 145 -39 366 -47 458 -6
80 -15 104 -33 86 -10 -10 10 -266 35 -474 8 -69 20 -172 26 -230 31 -317 63
-491 131 -715 55 -182 208 -635 233 -692 14 -30 25 -68 25 -84 0 -51 27 -34
45 28 9 32 45 117 80 190 35 73 71 154 79 180 57 183 58 187 105 398 20 90 60
330 80 480 6 44 15 113 21 154 6 41 19 152 30 245 28 249 58 489 75 586 12 68
62 396 92 603 4 23 2 37 -5 37 -6 0 -13 -3 -15 -7z"/>
<path d="M16947 23244 c-16 -31 -35 -96 -63 -209 -10 -38 -49 -158 -87 -265
-89 -248 -310 -915 -331 -1000 -20 -80 -41 -170 -54 -230 -21 -101 -102 -399
-125 -460 -110 -288 -129 -326 -190 -402 -23 -29 -49 -64 -58 -78 -9 -14 -51
-68 -93 -120 -41 -52 -76 -101 -76 -107 0 -27 26 -11 55 32 17 25 78 108 137
184 104 137 163 236 188 316 7 22 23 61 36 87 37 74 129 391 174 603 47 222
185 664 350 1120 75 209 119 348 120 378 0 9 11 50 25 89 15 44 22 75 16 81
-6 6 -15 -2 -24 -19z"/>
<path d="M15365 15804 c-214 -15 -346 -31 -398 -46 -43 -13 -57 -37 -57 -95 0
-42 46 -108 149 -215 72 -76 98 -85 108 -37 8 40 68 84 135 98 46 10 54 9 92
-14 141 -85 279 -127 416 -129 94 0 107 4 219 81 35 24 75 46 89 50 35 8 118
-35 187 -97 30 -27 57 -50 60 -50 2 0 31 24 64 54 33 29 80 68 105 87 54 42
96 106 103 159 5 35 2 43 -27 70 -44 41 -110 58 -269 70 -75 6 -163 15 -196
20 -84 14 -564 10 -780 -6z m865 -78 c158 -11 194 -17 246 -39 83 -35 112 -40
117 -19 3 9 5 2 6 -17 0 -18 -8 -48 -19 -66 -24 -39 -192 -185 -212 -185 -8 0
-25 12 -39 26 -29 33 -113 87 -154 101 -38 13 -84 -4 -183 -69 -41 -26 -90
-50 -109 -54 -105 -20 -315 31 -431 103 -66 41 -78 45 -121 41 -56 -6 -130
-40 -168 -80 -15 -15 -32 -28 -39 -28 -28 0 -184 193 -184 229 0 18 4 20 24
15 15 -3 42 3 73 17 33 16 75 25 138 29 174 12 866 10 1055 -4z"/>
<path d="M15074 15676 c-3 -8 -2 -28 3 -43 l10 -28 164 0 c90 0 169 -3 175 -7
9 -6 812 -22 934 -19 30 1 38 9 46 47 l6 31 -149 7 c-81 3 -339 8 -573 11
-234 3 -467 8 -517 11 -79 5 -94 3 -99 -10z"/>
<path d="M12954 18731 c-117 -16 -243 -34 -280 -41 -38 -8 -79 -13 -91 -12
-15 1 -23 -4 -23 -13 0 -9 -6 -25 -12 -36 -12 -18 -9 -24 27 -56 81 -71 297
-176 415 -203 30 -6 163 -48 295 -92 152 -51 280 -87 350 -99 210 -36 205 -45
-25 -52 -91 -3 -210 -12 -265 -21 -55 -8 -148 -22 -206 -30 -105 -15 -258 -60
-303 -90 -29 -18 -42 -64 -24 -82 7 -7 41 -24 75 -38 148 -62 272 -159 297
-233 17 -51 120 -170 186 -217 243 -172 309 -206 467 -245 116 -28 129 -29
364 -30 331 -1 390 10 579 104 150 74 228 125 302 196 34 33 37 39 31 75 -17
109 -135 229 -269 271 -30 9 -54 20 -54 24 0 3 22 9 49 13 27 3 70 18 96 32
26 13 50 22 53 20 13 -14 38 36 38 76 l-1 43 -65 7 c-206 21 -400 89 -713 248
-192 96 -306 166 -463 281 -173 128 -386 214 -554 224 -37 2 -156 -8 -276 -24z
m411 -89 c100 -27 179 -56 213 -79 15 -9 30 -18 34 -18 11 0 181 -113 209
-138 87 -79 545 -319 768 -402 177 -66 320 -86 384 -53 9 5 17 5 17 1 0 -20
-34 -55 -73 -74 -60 -31 -225 -23 -352 16 -196 60 -563 198 -659 246 -189 96
-418 179 -911 329 -55 16 -125 40 -155 53 -107 45 -212 108 -199 121 3 3 35 0
71 -6 52 -8 98 -7 224 6 87 10 161 20 164 22 11 12 192 -4 265 -24z m665 -777
c17 -9 30 -19 30 -23 -1 -30 -61 -121 -97 -146 -45 -31 -99 -39 -113 -17 -4 8
-10 9 -13 4 -4 -5 1 -19 9 -31 21 -31 80 -30 124 3 43 32 91 105 84 127 -6 19
3 23 22 10 7 -4 14 -55 17 -122 8 -145 14 -184 38 -238 23 -49 55 -66 113 -59
41 6 96 49 96 76 0 13 27 181 46 287 8 47 112 62 190 27 27 -12 57 -24 68 -27
15 -5 18 -14 14 -49 -18 -156 -194 -328 -376 -366 -258 -54 -524 102 -587 344
-16 62 -20 172 -7 191 9 13 70 17 119 6 24 -5 56 -4 88 4 70 17 102 16 135 -1z
m-673 -3 c48 3 132 7 185 7 l97 1 -6 -52 c-6 -70 19 -188 57 -262 16 -32 27
-62 24 -68 -7 -11 15 -40 26 -33 5 3 12 0 16 -6 4 -8 3 -9 -4 -5 -28 17 -8
-15 32 -52 47 -43 89 -68 127 -76 13 -2 62 -14 109 -27 71 -20 110 -23 233
-24 98 0 150 4 155 11 4 6 25 21 47 32 49 25 136 102 138 122 2 9 18 40 36 70
19 30 44 79 56 109 15 37 24 48 28 37 4 -9 14 -16 24 -16 9 0 47 -31 83 -70
44 -46 74 -70 92 -73 15 -1 30 -6 33 -9 10 -10 -128 -129 -180 -155 -54 -28
-66 -39 -59 -58 6 -16 -29 -30 -141 -56 -82 -19 -106 -20 -282 -14 -141 5
-193 10 -193 19 0 8 -35 17 -97 25 -281 37 -357 79 -576 318 -114 124 -166
204 -182 280 -6 30 -5 32 14 25 11 -4 60 -4 108 0z"/>
<path d="M17580 16579 c0 -6 15 -25 34 -42 18 -18 59 -56 89 -84 31 -29 63
-53 71 -53 9 0 16 -3 16 -7 0 -14 104 -61 148 -68 32 -5 42 -3 42 7 0 15 -48
40 -61 32 -5 -3 -9 -1 -9 4 0 6 -16 13 -35 16 -19 4 -35 12 -35 18 0 6 -3 8
-6 5 -4 -4 -15 3 -25 14 -10 12 -23 18 -28 14 -6 -3 -11 -2 -11 4 0 5 -9 13
-20 16 -11 4 -17 11 -14 17 4 6 2 8 -4 5 -17 -11 -42 4 -42 25 0 15 -5 18 -21
13 -15 -5 -19 -3 -17 8 2 8 -11 26 -28 40 -35 29 -44 33 -44 16z"/>
<path d="M15490 16136 c0 -24 12 -46 21 -40 5 3 6 -2 3 -10 -4 -12 0 -16 17
-16 12 0 56 -12 98 -26 109 -38 163 -41 236 -14 33 12 72 25 87 27 15 3 26 8
24 12 -3 4 13 18 34 31 37 23 59 50 41 50 -5 0 -51 -22 -102 -50 -83 -44 -101
-50 -155 -50 -75 0 -150 21 -232 66 -72 39 -72 39 -72 20z"/>
<path d="M13352 14768 c-7 -7 -12 -22 -12 -33 0 -25 52 -46 92 -38 15 3 30 -3
42 -16 19 -21 19 -22 -4 -46 -13 -14 -21 -27 -18 -30 3 -3 20 11 39 32 33 39
51 42 80 17 21 -19 92 -5 97 19 3 15 0 15 -37 2 -33 -11 -42 -11 -51 -1 -5 8
-8 21 -4 30 7 17 -11 23 -21 6 -3 -5 -12 -7 -21 -3 -13 5 -13 7 1 23 8 9 15
20 15 24 0 12 -61 -24 -67 -40 -10 -26 -34 4 -27 35 l5 26 -25 -28 c-30 -33
-72 -30 -63 4 6 23 -6 32 -21 17z"/>
<path d="M18956 14518 c-15 -21 -17 -21 -50 -6 -28 14 -35 14 -39 4 -9 -23 15
-36 64 -36 33 0 49 -5 53 -16 11 -28 7 -31 -43 -38 -53 -7 -68 -24 -50 -58 13
-24 12 -26 -37 -36 -29 -6 -40 -13 -42 -30 -4 -26 22 -31 32 -6 6 16 8 16 87
-1 21 -4 59 22 59 41 0 19 -16 18 -24 -1 -9 -24 -41 -18 -42 8 0 12 -4 30 -8
40 -7 14 -3 17 22 17 31 0 102 26 102 37 0 4 -12 20 -27 35 -24 25 -26 31 -15
48 11 17 10 20 -7 20 -11 0 -27 -10 -35 -22z"/>
<path d="M15613 14249 c-9 -9 -8 -17 3 -34 12 -19 13 -30 2 -69 -9 -33 -9 -52
-2 -63 38 -61 140 -79 188 -34 26 25 34 55 17 65 -5 3 -7 15 -4 26 5 17 0 20
-26 20 -46 0 -91 22 -131 64 -27 27 -39 33 -47 25z"/>
<path d="M16105 14210 c-9 -10 -38 -27 -64 -36 -56 -21 -94 -57 -86 -83 16
-51 97 -76 153 -47 18 9 32 21 32 27 0 6 6 7 13 3 6 -4 9 -4 5 1 -4 4 -4 13 2
20 6 7 4 21 -6 41 -9 16 -14 44 -12 62 5 37 -10 42 -37 12z"/>
<path d="M15942 11920 c-25 -24 -30 -55 -7 -46 16 6 45 -18 45 -38 0 -6 -21
-32 -46 -56 l-45 -43 74 -24 c41 -13 80 -30 87 -38 7 -8 8 -15 3 -15 -6 0 -23
-18 -38 -40 l-28 -40 27 -35 c28 -36 56 -46 56 -20 0 9 -11 21 -25 27 -31 14
-31 21 -1 61 47 62 39 92 -26 107 -29 6 -58 13 -65 15 -8 3 -5 17 11 47 28 53
56 60 89 24 31 -34 46 -33 104 7 42 28 45 32 25 35 -12 2 -38 -6 -56 -17 -28
-18 -39 -19 -62 -11 -21 8 -24 14 -16 22 19 19 14 31 -9 25 -24 -6 -87 27 -70
37 13 8 15 36 3 36 -5 0 -18 -9 -30 -20z"/>
<path d="M15985 11475 c-29 -28 -31 -38 -10 -55 21 -17 19 -40 -6 -66 -11 -12
-19 -30 -17 -40 3 -16 4 -16 22 1 13 14 31 19 60 18 42 -2 73 -3 138 -2 20 0
42 6 48 14 11 13 7 15 -23 15 -28 0 -35 3 -31 15 9 23 -15 18 -53 -11 -19 -14
-37 -23 -40 -20 -4 3 2 13 13 20 17 13 17 15 2 21 -9 4 -25 2 -37 -4 -27 -15
-30 -14 -24 8 3 13 -2 24 -15 32 -20 13 -20 13 -1 40 10 15 19 30 19 33 0 14
-22 4 -45 -19z"/>
<path d="M16270 11436 c-59 -24 -72 -49 -29 -54 15 -2 35 -12 45 -23 9 -10 27
-19 38 -20 17 0 15 -3 -11 -16 -37 -18 -44 -43 -13 -43 25 0 27 -17 3 -22 -19
-4 -84 21 -95 37 -4 5 -11 6 -15 1 -10 -10 44 -54 76 -63 44 -11 114 42 82 61
-15 10 -1 43 22 54 21 10 21 11 2 11 -17 1 -17 3 -5 11 23 15 60 12 60 -5 0
-19 11 -19 36 0 22 16 70 20 79 5 8 -13 -53 -43 -77 -37 -12 4 -18 1 -15 -6 2
-7 18 -11 37 -9 18 1 39 -3 47 -9 11 -10 8 -17 -19 -40 -44 -38 -114 -39 -77
-2 8 8 8 13 0 17 -6 4 -22 -4 -36 -18 -14 -15 -35 -26 -46 -26 -11 0 -18 -4
-15 -8 7 -12 178 -12 193 -1 18 15 37 1 23 -16 -10 -12 -5 -12 27 -3 48 13 63
25 63 52 -1 20 -1 20 -15 2 -11 -15 -21 -17 -50 -12 -40 8 -39 21 4 31 16 3
34 12 40 19 9 11 1 15 -40 20 l-51 7 29 26 28 27 -25 6 c-16 4 -24 12 -22 23
3 20 -5 21 -38 2 -14 -8 -45 -14 -70 -14 -42 0 -44 1 -26 14 32 24 11 28 -33
5 -23 -11 -41 -27 -41 -35 0 -23 -47 -19 -53 4 -4 15 3 24 28 35 18 9 40 16
48 16 9 0 19 5 22 10 11 17 -57 9 -115 -14z"/>
<path d="M15128 11299 c-24 -14 -24 -42 0 -35 10 4 27 -1 38 -9 10 -8 31 -15
45 -15 15 0 38 -9 52 -20 14 -11 39 -20 55 -20 34 0 36 -2 46 -41 7 -33 -11
-43 -53 -28 -21 7 -28 15 -24 28 7 28 -10 32 -45 11 -37 -23 -43 -45 -9 -37
29 8 46 -3 49 -32 3 -21 -5 -26 -58 -45 -90 -31 -125 -66 -65 -66 16 0 45 -7
64 -15 20 -8 40 -15 44 -15 15 1 -39 40 -56 40 -13 1 -12 3 4 12 11 6 22 14
25 18 3 4 28 18 55 30 28 12 60 33 72 46 12 13 26 24 31 24 5 0 27 -18 50 -41
42 -40 62 -44 62 -10 0 18 -37 41 -65 41 -22 0 -19 7 18 41 33 32 31 33 -31
13 -28 -9 -71 37 -65 70 5 22 3 25 -13 20 -11 -4 -24 -11 -31 -16 -8 -6 -26
-5 -49 2 -26 9 -33 15 -23 21 11 6 11 11 1 21 -10 10 -18 9 -41 -5 -36 -21
-49 -22 -47 -1 1 21 -14 26 -36 13z"/>
<path d="M14879 11286 c7 -8 11 -23 9 -33 -2 -13 4 -19 22 -21 34 -5 50 -20
50 -47 0 -18 4 -21 26 -17 14 2 39 -2 57 -11 18 -9 40 -18 50 -21 11 -4 21
-15 24 -25 6 -23 59 -39 75 -23 16 16 2 29 -37 36 -42 8 -43 12 -10 38 41 32
32 50 -14 27 -32 -15 -43 -16 -65 -6 -14 7 -24 17 -22 23 2 6 1 16 -4 23 -5
10 -13 7 -28 -10 -18 -18 -24 -20 -37 -9 -8 7 -13 16 -10 20 3 5 -15 22 -40
39 -50 34 -64 39 -46 17z"/>
<path d="M15583 11150 c5 -39 3 -42 -34 -66 -55 -34 -54 -60 1 -29 39 22 60
19 60 -9 0 -20 -11 -30 -55 -52 -31 -14 -54 -28 -52 -31 3 -2 23 -1 46 3 44 7
101 48 101 72 0 10 6 12 18 7 80 -34 93 -36 130 -18 56 28 49 38 -25 39 -56 1
-69 4 -84 23 -17 21 -17 25 -3 53 20 38 5 57 -21 28 -23 -25 -37 -25 -53 0
-21 34 -35 24 -29 -20z"/>
<path d="M16344 11115 c8 -8 22 -15 30 -15 30 0 16 -18 -30 -40 -39 -19 -45
-26 -40 -46 l6 -24 -36 25 c-56 38 -67 30 -26 -17 19 -23 46 -22 101 2 l44 20
44 -30 c25 -16 65 -37 89 -46 42 -16 45 -16 64 1 26 24 26 39 -1 24 -17 -9
-32 -6 -79 15 -32 14 -65 26 -74 26 -25 0 -19 16 12 29 15 6 38 21 52 31 25
20 25 20 -31 1 -31 -10 -70 -26 -87 -35 -43 -22 -40 -7 3 22 19 12 35 29 35
37 0 16 -38 35 -71 35 -18 0 -19 -2 -5 -15z"/>
<path d="M19408 5380 c-14 -10 -27 -17 -30 -15 -2 2 -4 -4 -5 -13 -1 -9 -8
-35 -17 -57 -18 -48 -21 -98 -5 -93 6 2 22 32 35 67 30 85 43 97 105 94 54 -2
103 -25 125 -58 13 -20 12 -21 -19 -18 -53 6 -61 -7 -65 -96 l-3 -81 33 -20
c52 -33 118 -13 118 36 0 16 -10 28 -29 39 -17 8 -33 20 -37 26 -4 8 -3 9 4 5
22 -13 52 31 52 77 0 35 -6 49 -32 74 -43 41 -76 53 -147 53 -43 0 -65 -5 -83
-20z"/>
<path d="M19493 4993 c-29 -15 -49 -40 -40 -50 2 -2 24 6 48 17 51 23 99 26
99 7 0 -20 -71 -84 -112 -102 -45 -18 -98 -20 -121 -2 -18 13 -15 20 35 89 7
9 10 20 7 23 -12 11 -36 -7 -62 -47 -30 -47 -35 -93 -11 -102 30 -11 125 -6
162 9 65 27 164 138 147 165 -10 16 -117 10 -152 -7z"/>
</g>
</svg>
