<?xml version="1.0" standalone="no"?>
<!DOCTYPE svg PUBLIC "-//W3C//DTD SVG 20010904//EN"
 "http://www.w3.org/TR/2001/REC-SVG-20010904/DTD/svg10.dtd">
<svg version="1.0" xmlns="http://www.w3.org/2000/svg"
 width="300.000000pt" height="300.000000pt" viewBox="0 0 300.000000 300.000000"
 preserveAspectRatio="xMidYMid meet">

<g transform="translate(0.000000,300.000000) scale(0.100000,-0.100000)"
fill="#000000" stroke="none">
<path d="M1280 2730 c-98 -9 -211 -35 -255 -58 l-30 -16 95 -23 95 -23 70 22
c62 20 91 23 260 23 105 0 237 -4 295 -8 115 -9 117 -2 12 34 -121 42 -377 65
-542 49z"/>
<path d="M648 2664 c-13 -13 -9 -24 10 -24 34 -1 103 -40 173 -99 39 -33 86
-67 104 -75 39 -19 86 -21 103 -4 18 18 15 48 -5 49 -17 0 -17 1 0 8 59 23
-171 127 -325 146 -29 4 -56 3 -60 -1z m247 -98 c39 -20 59 -34 45 -30 -32 8
-170 76 -177 87 -7 11 46 -12 132 -57z"/>
<path d="M2073 2648 c-6 -7 -36 -55 -68 -107 -64 -103 -152 -199 -213 -230
-22 -11 -97 -43 -166 -71 -145 -57 -245 -107 -296 -145 -37 -27 -110 -128
-110 -151 0 -27 54 -15 100 22 25 20 55 40 66 44 21 8 270 -22 282 -34 8 -9
-18 -7 -122 5 -112 14 -136 9 -177 -36 l-31 -34 -117 2 -116 2 -93 -48 c-85
-45 -199 -79 -246 -74 -10 1 -23 -6 -29 -15 -9 -13 -3 -28 27 -75 20 -32 44
-75 53 -95 11 -27 22 -38 38 -38 12 0 39 -19 64 -45 47 -49 124 -99 142 -93 7
2 -8 27 -35 56 -34 39 -46 61 -46 84 l0 31 21 -27 c25 -32 39 -33 39 -3 0 33
15 50 37 43 17 -5 22 -1 26 24 9 43 79 114 139 140 50 22 222 42 206 25 -5 -5
-46 -11 -91 -15 -63 -5 -94 -13 -122 -30 -34 -21 -36 -25 -19 -31 10 -4 67 -8
127 -8 l107 -1 -6 -24 c-4 -18 -1 -27 14 -35 33 -18 54 -13 89 21 45 44 51 30
9 -24 -52 -69 -54 -75 -66 -203 -18 -198 -32 -224 -120 -233 -40 -4 -50 -8
-50 -23 0 -15 -4 -16 -32 -8 -46 13 -50 12 -38 -10 5 -11 10 -23 10 -27 0 -7
-42 0 -74 12 -18 7 -18 6 -1 -19 9 -14 26 -29 36 -32 14 -5 18 -12 14 -25 -12
-38 96 -66 146 -40 11 6 39 38 64 72 71 98 164 151 305 173 85 13 83 11 76 72
-9 74 -27 115 -65 144 -109 82 -127 110 -112 167 7 24 8 23 46 -29 21 -30 66
-82 99 -117 l60 -62 7 -86 c4 -47 9 -88 13 -91 3 -3 12 0 21 7 23 19 27 7 11
-36 -8 -22 -16 -70 -19 -109 -4 -68 -21 -113 -63 -173 -9 -12 -12 -22 -7 -22
13 0 145 134 182 185 48 66 101 181 116 253 37 171 12 226 -153 342 -34 24
-60 45 -58 47 8 9 128 -59 166 -93 46 -42 87 -121 96 -185 12 -85 -44 -233
-129 -344 -17 -22 -74 -84 -126 -137 -93 -96 -94 -97 -55 -87 54 15 68 24 134
82 32 29 73 61 91 72 19 11 49 45 67 75 32 54 32 54 32 22 0 -64 -47 -120
-167 -197 -35 -22 -63 -45 -63 -51 0 -6 7 -25 16 -43 19 -39 12 -77 -26 -129
-44 -61 -114 -112 -203 -148 l-82 -34 46 0 c65 0 152 46 240 128 40 37 68 58
62 47 -20 -38 -87 -98 -161 -146 -73 -48 -77 -49 -150 -49 -59 0 -73 -3 -64
-12 19 -19 235 -16 302 5 75 22 157 83 205 152 101 144 132 181 172 203 77 43
106 7 84 -103 -7 -33 -25 -93 -41 -132 -15 -40 -24 -73 -19 -73 17 0 142 125
185 185 53 75 94 160 94 198 0 20 5 27 19 27 21 0 31 25 31 80 0 62 12 110 26
110 11 0 14 23 14 106 l0 107 -37 35 -37 34 32 -7 c43 -9 42 1 -12 111 -34 72
-56 101 -106 147 -82 74 -75 104 19 77 19 -5 37 -8 39 -5 10 10 -50 85 -90
113 -86 58 -149 75 -313 81 l-150 6 80 8 c89 9 228 -4 296 -29 106 -37 201
-123 273 -247 21 -37 41 -65 43 -63 10 9 -30 124 -68 196 -72 139 -143 209
-356 351 -73 49 -133 93 -133 98 0 5 8 23 17 40 17 29 17 32 -5 98 -27 79 -82
185 -98 190 -6 2 -16 -2 -21 -9z m-27 -267 c-8 -32 -22 -74 -31 -92 l-15 -34
5 30 c12 69 17 145 10 145 -4 0 -36 -27 -72 -60 -84 -79 -101 -77 -26 4 33 35
78 89 99 120 l39 55 3 -55 c2 -30 -4 -81 -12 -113z m-616 -320 c0 -5 -19 -11
-41 -15 -23 -4 -55 -16 -70 -27 -16 -11 -29 -16 -29 -11 0 11 40 48 60 55 24
9 80 8 80 -2z"/>
<path d="M226 2508 c-44 -5 -104 -15 -135 -23 l-56 -14 65 7 c36 4 139 7 230
6 147 0 176 -3 264 -27 54 -15 117 -27 140 -27 44 0 70 -14 123 -63 32 -30 32
-30 121 -24 115 8 152 -3 208 -61 l44 -46 -11 35 c-29 84 -61 103 -202 118
-108 12 -144 25 -197 70 -57 49 -127 61 -335 60 -99 -1 -216 -6 -259 -11z"/>
<path d="M129 2469 c-36 -5 -77 -13 -90 -17 -21 -8 -16 -11 41 -30 158 -52
267 -64 321 -36 l30 15 -16 -24 c-24 -37 -1 -51 74 -45 l59 4 -19 -24 c-20
-26 -25 -68 -10 -91 7 -10 18 0 45 40 42 63 46 59 11 -11 -24 -47 -24 -50 -7
-50 31 0 85 22 126 52 59 43 66 34 14 -19 -45 -47 -108 -138 -108 -156 0 -6
26 15 58 45 103 98 146 110 346 98 78 -5 160 -16 184 -24 23 -8 42 -12 42 -8
0 21 -63 104 -92 123 -30 18 -43 20 -139 15 -115 -6 -117 -5 -191 61 -34 29
-43 33 -95 31 -34 0 -85 8 -124 20 -127 40 -302 51 -460 31z"/>
<path d="M377 2243 c-33 -48 -99 -190 -125 -268 -22 -65 -38 -143 -29 -134 4
3 33 59 66 125 34 70 80 144 110 179 29 33 54 70 57 82 16 63 -39 73 -79 16z"/>
<path d="M840 2201 c-50 -16 -97 -46 -202 -130 -59 -47 -140 -106 -180 -131
-145 -90 -267 -241 -308 -380 -45 -155 -33 -159 29 -8 48 118 96 193 164 254
80 72 203 124 222 94 3 -5 -8 -48 -24 -94 -35 -100 -84 -276 -79 -282 3 -2 24
49 48 114 76 206 148 326 222 369 152 89 298 179 298 184 0 17 -143 24 -190
10z"/>
<path d="M250 1279 c0 -15 11 -67 25 -115 55 -190 117 -335 206 -482 53 -85
55 -90 38 -74 -15 14 -83 15 -244 5 -125 -7 -121 -11 66 -48 207 -41 245 -52
379 -115 201 -94 377 -131 680 -144 159 -7 151 0 -55 44 -82 17 -199 48 -259
67 -100 34 -196 84 -203 108 -1 6 55 53 125 105 167 125 289 228 330 279 18
22 30 41 27 41 -3 0 -26 -15 -52 -34 -76 -53 -170 -101 -278 -141 -119 -44
-274 -85 -323 -85 -61 0 -118 36 -191 122 -88 103 -153 212 -218 368 -33 77
-53 115 -53 99z"/>
<path d="M728 1160 c-4 -8 -30 -83 -58 -167 -70 -214 -66 -270 19 -244 59 17
66 31 52 96 -7 30 -16 57 -21 60 -4 3 -1 23 6 46 15 43 16 239 2 209z"/>
<path d="M2318 899 c-9 -5 -58 -65 -108 -134 -108 -148 -155 -191 -268 -248
-64 -31 -108 -63 -175 -127 -62 -58 -85 -86 -74 -88 9 -2 51 6 93 18 179 49
346 154 406 255 56 94 159 318 151 326 -5 4 -16 3 -25 -2z"/>
<path d="M240 781 c0 -5 25 -31 55 -60 76 -72 155 -104 155 -62 0 24 -35 68
-69 85 -36 19 -141 46 -141 37z"/>
<path d="M1088 600 c-66 -11 -138 -37 -168 -59 l-24 -19 46 -23 46 -22 176 59
c97 32 176 62 176 66 0 10 -190 8 -252 -2z"/>
<path d="M650 443 c0 -16 66 -118 105 -160 l44 -48 -22 83 c-18 71 -26 86 -49
98 -41 21 -78 34 -78 27z"/>
</g>
</svg>
