<?xml version="1.0" standalone="no"?>
<!DOCTYPE svg PUBLIC "-//W3C//DTD SVG 20010904//EN"
 "http://www.w3.org/TR/2001/REC-SVG-20010904/DTD/svg10.dtd">
<svg version="1.0" xmlns="http://www.w3.org/2000/svg"
 width="254.000000pt" height="198.000000pt" viewBox="0 0 254.000000 198.000000"
 preserveAspectRatio="xMidYMid meet">
<metadata>
Created by potrace 1.16, written by Peter Selinger 2001-2019
</metadata>
<g transform="translate(0.000000,198.000000) scale(0.100000,-0.100000)"
fill="#000000" stroke="none">
<path d="M819 1377 c-84 -57 -139 -114 -139 -144 0 -22 42 -64 81 -80 25 -11
27 -9 65 70 21 44 56 105 78 136 21 31 32 50 23 43 -8 -7 -34 -42 -57 -78 -23
-35 -46 -64 -50 -64 -11 0 -20 27 -20 60 0 33 17 53 71 81 37 18 49 29 32 29
-5 0 -42 -24 -84 -53z"/>
<path d="M946 1350 c-59 -64 -58 -62 -128 -197 -48 -93 -59 -106 -95 -117 -12
-4 -37 -21 -55 -38 -56 -52 -39 -130 37 -171 11 -6 3 6 -17 25 -51 48 -52 88
-2 134 43 41 61 43 67 7 l4 -28 2 27 c1 19 10 32 30 43 37 19 59 11 67 -24 11
-49 12 -46 13 20 2 138 40 247 115 325 27 27 37 45 30 48 -7 3 -38 -22 -68
-54z"/>
<path d="M1684 1263 c-6 -10 -38 -27 -70 -37 -76 -24 -227 -88 -236 -100 -11
-16 0 -24 27 -18 18 3 25 0 25 -12 0 -9 5 -15 12 -13 6 1 22 -16 36 -38 13
-22 21 -31 17 -20 -17 48 -17 55 -1 55 11 0 16 -9 17 -27 1 -27 1 -27 10 5 7
22 16 32 29 32 27 0 25 -5 -11 -51 -17 -21 -26 -39 -20 -39 6 0 25 19 42 43
43 59 54 55 52 -18 l-2 -60 9 52 c11 76 16 83 50 83 16 0 30 5 30 10 0 6 -11
10 -25 10 -28 0 -29 4 -14 50 11 31 14 32 51 27 22 -3 46 -14 53 -24 8 -10 15
-13 15 -6 0 6 7 18 15 26 13 14 8 18 -40 38 -30 12 -55 28 -57 36 -2 10 -6 9
-14 -4z"/>
<path d="M946 1255 c4 -9 43 -38 87 -65 45 -28 79 -50 75 -50 -3 0 -36 11 -73
25 -45 17 -71 23 -78 16 -6 -6 3 -15 27 -25 31 -13 36 -19 36 -49 0 -20 8 -45
20 -58 l20 -24 20 24 c12 13 25 31 29 39 7 12 15 13 37 5 23 -7 32 -6 46 8 16
17 11 22 -97 93 -109 73 -161 95 -149 61z"/>
<path d="M2181 1214 c0 -11 10 -44 24 -72 42 -87 33 -116 -50 -163 -30 -17
-58 -36 -62 -41 -4 -7 -1 -8 7 -3 10 6 12 -1 6 -36 -11 -72 -19 -365 -10 -356
5 5 12 77 15 160 8 178 22 241 56 265 61 43 83 66 91 95 6 24 14 31 37 34 34
4 85 54 84 81 0 11 -2 13 -6 4 -3 -8 -19 -22 -37 -33 -17 -10 -25 -19 -18 -19
7 0 10 -4 7 -10 -3 -5 -20 -10 -37 -10 -36 0 -95 57 -101 99 -3 19 -4 20 -6 5z"/>
<path d="M630 1087 c-68 -23 -100 -60 -100 -115 0 -73 46 -121 161 -167 96
-38 113 -56 42 -44 -145 24 -134 14 17 -16 167 -33 247 -44 168 -23 -77 20
-115 146 -62 203 27 29 26 47 -2 24 -29 -23 -56 -97 -49 -129 7 -33 4 -35 -27
-19 -16 8 -19 8 -13 -1 10 -16 -23 -6 -100 32 -73 36 -101 61 -115 103 -20 60
33 128 117 151 28 7 38 13 23 13 -14 0 -41 -6 -60 -12z"/>
<path d="M1310 587 c0 -38 -1 -38 -30 -32 -35 8 -38 -2 -9 -39 l20 -26 -30 0
c-36 0 -40 -14 -10 -31 16 -8 18 -13 9 -19 -15 -9 -5 -30 15 -30 7 0 23 -12
35 -27 18 -23 19 -29 7 -31 -13 -3 -13 -7 -1 -30 18 -36 18 -45 -6 -74 l-19
-25 26 -12 c36 -17 14 -31 -47 -31 l-45 1 23 18 c31 27 28 31 -22 31 -28 0
-67 -11 -108 -30 -34 -16 -73 -30 -84 -30 -13 0 -24 -8 -27 -20 -5 -19 -1 -20
166 -19 248 2 400 12 404 26 4 11 -13 20 -54 27 -10 2 -49 18 -86 36 -62 29
-67 33 -50 46 25 19 40 17 76 -7 28 -18 29 -18 10 -1 -12 11 -19 22 -16 26 4
3 0 6 -8 6 -8 1 -35 20 -61 43 l-48 42 26 43 c14 23 33 42 42 43 15 0 15 1 -1
7 -15 6 -11 14 26 57 24 28 49 60 55 72 12 21 11 22 -83 25 l-95 3 0 -38z"/>
</g>
</svg>
